999
FreeCAD v0.20 29410 (Git)
  0
SECTION
  2
HEADER
  9
$ACADVER
  1
AC1014
  9
$ACADMAINTVER
 70
     9
  9
$DWGCODEPAGE
  3
ANSI_1252
  9
$TEXTSTYLE
  7
STANDARD
  9
$DIMSTYLE
  2
STANDARD
  9
$DIMTXSTY
  7
STANDARD
  9
$CMLSTYLE
  2
STANDARD
  9
$LUNITS
 70
2
  9
$INSUNITS
 70
4
  9
$PEXTMAX
 10
50
 20
50
 30
50
  9
$PEXTMIN
 10
0
 20
0
 30
0
  9
$HANDSEED
  5
FFFF
  0
ENDSEC
  0
SECTION
  2
CLASSES
  0
CLASS
  1
ACDBDICTIONARYWDFLT
  2
AcDbDictionaryWithDefault
  3
ObjectDBX Classes
 90
        0
280
     0
281
     0
  0
CLASS
  1
XRECORD
  2
AcDbXrecord
  3
ObjectDBX Classes
 90
        0
280
     0
281
     0
  0
CLASS
  1
LWPOLYLINE
  2
AcDbPolyline
  3
ObjectDBX Classes
 90
        0
280
     0
281
     1
  0
ENDSEC
  0
SECTION
  2
TABLES
  0
TABLE
  2
VPORT
  5
20
330
0
100
AcDbSymbolTable
 70
     1
  0
VPORT
  5
21
330
20
100
AcDbSymbolTableRecord
100
AcDbViewportTableRecord
  2
*ACTIVE
 70
     0
  0
ENDTAB
  0
TABLE
  2
LTYPE
  5
22
330
0
100
AcDbSymbolTable
 70
     1
  0
LTYPE
  5
23
330
21
100
AcDbSymbolTableRecord
100
AcDbLinetypeTableRecord
  2
BYBLOCK
 70
     0
  3

 72
    65
 73
     0
 40
0.0
  0
LTYPE
  5
24
330
21
100
AcDbSymbolTableRecord
100
AcDbLinetypeTableRecord
  2
BYLAYER
 70
     0
  3

 72
    65
 73
     0
 40
0.0
  0
LTYPE
  5
25
330
21
100
AcDbSymbolTableRecord
100
AcDbLinetypeTableRecord
  2
CONTINUOUS
 70
     0
  3
Solid line
 72
    65
 73
     0
 40
0.0
  0
ENDTAB
  0
TABLE
  2
LAYER
  5
A69
330
0
100
AcDbSymbolTable
 70
3
  0
LAYER
  5
A6A
330
A69
100
AcDbSymbolTableRecord
100
AcDbLayerTableRecord
  2
0
 70
   0
 62
   7
  6
CONTINUOUS
  0
LAYER
  5
A6B
330
A69
100
AcDbSymbolTableRecord
100
AcDbLayerTableRecord
  2
none
 70
    0
 62
    7
  6
CONTINUOUS
  0
LAYER
  5
A6C
330
A69
100
AcDbSymbolTableRecord
100
AcDbLayerTableRecord
  2
Sketch031
 70
    0
 62
    7
  6
CONTINUOUS
  0
ENDTAB
  0
TABLE
  2
STYLE
  5
70
330
0
100
AcDbSymbolTable
 70
     2
  0
STYLE
  5
71
330
70
100
AcDbSymbolTableRecord
100
AcDbTextStyleTableRecord
  2
STANDARD
 70
     0
 40
0.0
 41
1.0
 50
0.0
 71
     0
 42
2.5
  3
arial.ttf
  4

  0
STYLE
  5
72
330
70
100
AcDbSymbolTableRecord
100
AcDbTextStyleTableRecord
  2
ANNOTATIVE
 70
     0
 40
0.0
 41
1.0
 50
0.0
 71
     0
 42
2.5
  3
arial.ttf
  4

  0
ENDTAB
  0
TABLE
  2
VIEW
  5
73
330
0
100
AcDbSymbolTable
 70
     0
  0
ENDTAB
  0
TABLE
  2
UCS
  5
74
330
0
100
AcDbSymbolTable
 70
     0
  0
ENDTAB
  0
TABLE
  2
APPID
  5
75
330
0
100
AcDbSymbolTable
 70
     2
  0
APPID
  5
76
330
75
100
AcDbSymbolTableRecord
100
AcDbRegAppTableRecord
  2
ACAD
 70
     0
  0
APPID
  5
77
330
75
100
AcDbSymbolTableRecord
100
AcDbRegAppTableRecord
  2
ACADANNOTATIVE
 70
     0
  0
ENDTAB
  0
TABLE
  2
DIMSTYLE
  5
78
330
0
100
AcDbSymbolTable
 70
     2
  0
DIMSTYLE
105
79
330
78
100
AcDbSymbolTableRecord
100
AcDbDimStyleTableRecord
  2
STANDARD
 70
     0
  3

  4

  5

  6

  7

 40
0.0
 41
2.5
 42
0.625
 43
3.75
 44
1.25
 45
0.0
 46
0.0
 47
0.0
 48
0.0
140
2.5
141
2.5
142
0.0
143
0.03937007874016
144
1.0
145
0.0
146
1.0
147
0.625
 71
     0
 72
     0
 73
     0
 74
     0
 75
     0
 76
     0
 77
     1
 78
     8
170
     0
171
     3
172
     1
173
     0
174
     0
175
     0
176
     0
177
     0
178
     0
270
     2
271
     2
272
     2
273
     2
274
     3
340
71
275
     0
280
     0
281
     0
282
     0
283
     0
284
     8
285
     0
286
     0
287
     3
288
     0
  0
ENDTAB
  0
TABLE
  2
BLOCK_RECORD
  5
A01
330
0
100
AcDbSymbolTable
  70
5
  0
BLOCK_RECORD
  5
A02
330
A01
100
AcDbSymbolTableRecord
100
AcDbBlockTableRecord
  2
*MODEL_SPACE
  0
BLOCK_RECORD
  5
A03
330
A01
100
AcDbSymbolTableRecord
100
AcDbBlockTableRecord
  2
*PAPER_SPACE
  0
ENDTAB
  0
ENDSEC
  0
SECTION
  2
BLOCKS
  0
BLOCK
  5
A04
330
A02
100
AcDbEntity
  8
0
100
AcDbBlockBegin
  2
*MODEL_SPACE
 70
   0
 10
0
 20
0
 30
0
  3
*MODEL_SPACE
  1
 
  0
ENDBLK
  5
A05
330
A02
100
AcDbEntity
  8
0
100
AcDbBlockEnd
  0
BLOCK
  5
A06
330
A03
100
AcDbEntity
 67
1
  8
0
100
AcDbBlockBegin
  2
*PAPER_SPACE
 70
   0
 10
0
 20
0
 30
0
  3
*PAPER_SPACE
  1
 
  0
ENDBLK
  5
A07
330
A03
100
AcDbEntity
 67
    1
  8
0
100
AcDbBlockEnd
  0
ENDSEC
  0
SECTION
  2
ENTITIES
  0
LINE
  5
A08
330
A02
100
AcDbEntity
  8
Sketch031
100
AcDbLine
 10
15
 20
-16
 30
0
 11
15
 21
25.5
 31
0
  0
ARC
  5
A09
330
A02
100
AcDbEntity
  8
Sketch031
100
AcDbCircle
 10
14.5
 20
25.5
 30
0
 40
0.5
100
AcDbArc
 50
0
 51
90
  0
LINE
  5
A0A
330
A02
100
AcDbEntity
  8
Sketch031
100
AcDbLine
 10
14.5
 20
26
 30
0
 11
-25.5
 21
26
 31
0
  0
ARC
  5
A0B
330
A02
100
AcDbEntity
  8
Sketch031
100
AcDbCircle
 10
-25.5
 20
25.5
 30
0
 40
0.5
100
AcDbArc
 50
90
 51
180
  0
LINE
  5
A0C
330
A02
100
AcDbEntity
  8
Sketch031
100
AcDbLine
 10
-26
 20
25.5
 30
0
 11
-26
 21
-25.5
 31
0
  0
ARC
  5
A0D
330
A02
100
AcDbEntity
  8
Sketch031
100
AcDbCircle
 10
-25.5
 20
-25.5
 30
0
 40
0.5
100
AcDbArc
 50
180
 51
-90
  0
LINE
  5
A0E
330
A02
100
AcDbEntity
  8
Sketch031
100
AcDbLine
 10
-25.5
 20
-26
 30
0
 11
4.90297
 21
-26
 31
0
  0
LINE
  5
A0F
330
A02
100
AcDbEntity
  8
Sketch031
100
AcDbLine
 10
4.90297
 20
-26
 30
0
 11
25.5
 21
-26
 31
0
  0
ARC
  5
A10
330
A02
100
AcDbEntity
  8
Sketch031
100
AcDbCircle
 10
25.5
 20
-25.5
 30
0
 40
0.5
100
AcDbArc
 50
-90
 51
0
  0
LINE
  5
A11
330
A02
100
AcDbEntity
  8
Sketch031
100
AcDbLine
 10
26
 20
-25.5
 30
0
 11
26
 21
25.5
 31
0
  0
ARC
  5
A12
330
A02
100
AcDbEntity
  8
Sketch031
100
AcDbCircle
 10
25.5
 20
25.5
 30
0
 40
0.5
100
AcDbArc
 50
0
 51
90
  0
LINE
  5
A13
330
A02
100
AcDbEntity
  8
Sketch031
100
AcDbLine
 10
25.5
 20
26
 30
0
 11
21.5
 21
26
 31
0
  0
ARC
  5
A14
330
A02
100
AcDbEntity
  8
Sketch031
100
AcDbCircle
 10
21.5
 20
25.5
 30
0
 40
0.5
100
AcDbArc
 50
90
 51
180
  0
LINE
  5
A15
330
A02
100
AcDbEntity
  8
Sketch031
100
AcDbLine
 10
21
 20
25.5
 30
0
 11
21
 21
21.2883
 31
0
  0
ARC
  5
A16
330
A02
100
AcDbEntity
  8
Sketch031
100
AcDbCircle
 10
21.75
 20
21.2883
 30
0
 40
0.75
100
AcDbArc
 50
180
 51
-126.87
  0
ARC
  5
A17
330
A02
100
AcDbEntity
  8
Sketch031
100
AcDbCircle
 10
21
 20
20.2883
 30
0
 40
0.5
100
AcDbArc
 50
-90
 51
53.1301
  0
LINE
  5
A18
330
A02
100
AcDbEntity
  8
Sketch031
100
AcDbLine
 10
21
 20
19.7883
 30
0
 11
18
 21
19.7883
 31
0
  0
ARC
  5
A19
330
A02
100
AcDbEntity
  8
Sketch031
100
AcDbCircle
 10
18
 20
19.2883
 30
0
 40
0.5
100
AcDbArc
 50
90
 51
180
  0
LINE
  5
A1A
330
A02
100
AcDbEntity
  8
Sketch031
100
AcDbLine
 10
17.5
 20
19.2883
 30
0
 11
17.5
 21
5.28826
 31
0
  0
ARC
  5
A1B
330
A02
100
AcDbEntity
  8
Sketch031
100
AcDbCircle
 10
18
 20
5.28826
 30
0
 40
0.5
100
AcDbArc
 50
180
 51
-90
  0
LINE
  5
A1C
330
A02
100
AcDbEntity
  8
Sketch031
100
AcDbLine
 10
18
 20
4.78826
 30
0
 11
21
 21
4.78826
 31
0
  0
ARC
  5
A1D
330
A02
100
AcDbEntity
  8
Sketch031
100
AcDbCircle
 10
21
 20
4.28826
 30
0
 40
0.5
100
AcDbArc
 50
-53.1301
 51
90
  0
ARC
  5
A1E
330
A02
100
AcDbEntity
  8
Sketch031
100
AcDbCircle
 10
21.75
 20
3.28826
 30
0
 40
0.75
100
AcDbArc
 50
126.87
 51
180
  0
LINE
  5
A1F
330
A02
100
AcDbEntity
  8
Sketch031
100
AcDbLine
 10
21
 20
3.28826
 30
0
 11
21
 21
-16
 31
0
  0
ARC
  5
A20
330
A02
100
AcDbEntity
  8
Sketch031
100
AcDbCircle
 10
18
 20
-16
 30
0
 40
3
100
AcDbArc
 50
180
 51
0
  0
LINE
  5
A21
330
A02
100
AcDbEntity
  8
Sketch031
100
AcDbLine
 10
-15.1686
 20
-4.68372
 30
0
 11
-0.05
 21
-4.68372
 31
0
  0
ARC
  5
A22
330
A02
100
AcDbEntity
  8
Sketch031
100
AcDbCircle
 10
-0.05
 20
-4.73372
 30
0
 40
0.05
100
AcDbArc
 50
-1.01778e-12
 51
90
  0
LINE
  5
A23
330
A02
100
AcDbEntity
  8
Sketch031
100
AcDbLine
 10
0
 20
-4.73372
 30
0
 11
0
 21
-7.63372
 31
0
  0
ARC
  5
A24
330
A02
100
AcDbEntity
  8
Sketch031
100
AcDbCircle
 10
-0.05
 20
-7.63372
 30
0
 40
0.05
100
AcDbArc
 50
-90
 51
0
  0
LINE
  5
A25
330
A02
100
AcDbEntity
  8
Sketch031
100
AcDbLine
 10
-0.05
 20
-7.68372
 30
0
 11
-15.1686
 21
-7.68372
 31
0
  0
ARC
  5
A26
330
A02
100
AcDbEntity
  8
Sketch031
100
AcDbCircle
 10
-15.1686
 20
-7.63372
 30
0
 40
0.05
100
AcDbArc
 50
180
 51
-90
  0
LINE
  5
A27
330
A02
100
AcDbEntity
  8
Sketch031
100
AcDbLine
 10
-15.2186
 20
-7.63372
 30
0
 11
-15.2186
 21
-4.73372
 31
0
  0
ARC
  5
A28
330
A02
100
AcDbEntity
  8
Sketch031
100
AcDbCircle
 10
-15.1686
 20
-4.73372
 30
0
 40
0.05
100
AcDbArc
 50
90
 51
180
  0
LINE
  5
A29
330
A02
100
AcDbEntity
  8
Sketch031
100
AcDbLine
 10
-0.05
 20
-11.5837
 30
0
 11
-15.1686
 21
-11.5837
 31
0
  0
ARC
  5
A2A
330
A02
100
AcDbEntity
  8
Sketch031
100
AcDbCircle
 10
-15.1686
 20
-11.6337
 30
0
 40
0.05
100
AcDbArc
 50
90
 51
180
  0
LINE
  5
A2B
330
A02
100
AcDbEntity
  8
Sketch031
100
AcDbLine
 10
-15.2186
 20
-11.6337
 30
0
 11
-15.2186
 21
-14.6337
 31
0
  0
ARC
  5
A2C
330
A02
100
AcDbEntity
  8
Sketch031
100
AcDbCircle
 10
-15.1686
 20
-14.6337
 30
0
 40
0.05
100
AcDbArc
 50
180
 51
-90
  0
LINE
  5
A2D
330
A02
100
AcDbEntity
  8
Sketch031
100
AcDbLine
 10
-15.1686
 20
-14.6837
 30
0
 11
-0.05
 21
-14.6837
 31
0
  0
ARC
  5
A2E
330
A02
100
AcDbEntity
  8
Sketch031
100
AcDbCircle
 10
-0.05
 20
-14.6337
 30
0
 40
0.05
100
AcDbArc
 50
-90
 51
0
  0
LINE
  5
A2F
330
A02
100
AcDbEntity
  8
Sketch031
100
AcDbLine
 10
0
 20
-14.6337
 30
0
 11
0
 21
-11.6337
 31
0
  0
ARC
  5
A30
330
A02
100
AcDbEntity
  8
Sketch031
100
AcDbCircle
 10
-0.05
 20
-11.6337
 30
0
 40
0.05
100
AcDbArc
 50
0
 51
90
  0
LINE
  5
A31
330
A02
100
AcDbEntity
  8
Sketch031
100
AcDbLine
 10
-0.05
 20
-18.5837
 30
0
 11
-15.1686
 21
-18.5837
 31
0
  0
ARC
  5
A32
330
A02
100
AcDbEntity
  8
Sketch031
100
AcDbCircle
 10
-15.1686
 20
-18.6337
 30
0
 40
0.05
100
AcDbArc
 50
90
 51
180
  0
LINE
  5
A33
330
A02
100
AcDbEntity
  8
Sketch031
100
AcDbLine
 10
-15.2186
 20
-18.6337
 30
0
 11
-15.2186
 21
-21.7337
 31
0
  0
ARC
  5
A34
330
A02
100
AcDbEntity
  8
Sketch031
100
AcDbCircle
 10
-15.1686
 20
-21.7337
 30
0
 40
0.05
100
AcDbArc
 50
180
 51
-90
  0
LINE
  5
A35
330
A02
100
AcDbEntity
  8
Sketch031
100
AcDbLine
 10
-15.1686
 20
-21.7837
 30
0
 11
-0.05
 21
-21.7837
 31
0
  0
ARC
  5
A36
330
A02
100
AcDbEntity
  8
Sketch031
100
AcDbCircle
 10
-0.05
 20
-21.7337
 30
0
 40
0.05
100
AcDbArc
 50
-90
 51
0
  0
LINE
  5
A37
330
A02
100
AcDbEntity
  8
Sketch031
100
AcDbLine
 10
0
 20
-21.7337
 30
0
 11
0
 21
-18.6337
 31
0
  0
ARC
  5
A38
330
A02
100
AcDbEntity
  8
Sketch031
100
AcDbCircle
 10
-0.05
 20
-18.6337
 30
0
 40
0.05
100
AcDbArc
 50
0
 51
90
  0
LINE
  5
A39
330
A02
100
AcDbEntity
  8
Sketch031
100
AcDbLine
 10
-0.05
 20
-0.783723
 30
0
 11
-15.1686
 21
-0.783723
 31
0
  0
ARC
  5
A3A
330
A02
100
AcDbEntity
  8
Sketch031
100
AcDbCircle
 10
-15.1686
 20
-0.733723
 30
0
 40
0.05
100
AcDbArc
 50
180
 51
-90
  0
LINE
  5
A3B
330
A02
100
AcDbEntity
  8
Sketch031
100
AcDbLine
 10
-15.2186
 20
-0.733723
 30
0
 11
-15.2186
 21
2.06628
 31
0
  0
ARC
  5
A3C
330
A02
100
AcDbEntity
  8
Sketch031
100
AcDbCircle
 10
-15.1686
 20
2.06628
 30
0
 40
0.05
100
AcDbArc
 50
90
 51
180
  0
LINE
  5
A3D
330
A02
100
AcDbEntity
  8
Sketch031
100
AcDbLine
 10
-15.1686
 20
2.11628
 30
0
 11
-0.05
 21
2.11628
 31
0
  0
ARC
  5
A3E
330
A02
100
AcDbEntity
  8
Sketch031
100
AcDbCircle
 10
-0.05
 20
2.06628
 30
0
 40
0.05
100
AcDbArc
 50
0
 51
90
  0
LINE
  5
A3F
330
A02
100
AcDbEntity
  8
Sketch031
100
AcDbLine
 10
0
 20
2.06628
 30
0
 11
0
 21
-0.733723
 31
0
  0
ARC
  5
A40
330
A02
100
AcDbEntity
  8
Sketch031
100
AcDbCircle
 10
-0.05
 20
-0.733723
 30
0
 40
0.05
100
AcDbArc
 50
-90
 51
0
  0
LINE
  5
A41
330
A02
100
AcDbEntity
  8
Sketch031
100
AcDbLine
 10
0
 20
8.76628
 30
0
 11
0
 21
6.06628
 31
0
  0
ARC
  5
A42
330
A02
100
AcDbEntity
  8
Sketch031
100
AcDbCircle
 10
-0.05
 20
6.06628
 30
0
 40
0.05
100
AcDbArc
 50
-90
 51
0
  0
LINE
  5
A43
330
A02
100
AcDbEntity
  8
Sketch031
100
AcDbLine
 10
-0.05
 20
6.01628
 30
0
 11
-15.1686
 21
6.01628
 31
0
  0
ARC
  5
A44
330
A02
100
AcDbEntity
  8
Sketch031
100
AcDbCircle
 10
-15.1686
 20
6.06628
 30
0
 40
0.05
100
AcDbArc
 50
180
 51
-90
  0
LINE
  5
A45
330
A02
100
AcDbEntity
  8
Sketch031
100
AcDbLine
 10
-15.2186
 20
6.06628
 30
0
 11
-15.2186
 21
8.76628
 31
0
  0
ARC
  5
A46
330
A02
100
AcDbEntity
  8
Sketch031
100
AcDbCircle
 10
-15.1686
 20
8.76628
 30
0
 40
0.05
100
AcDbArc
 50
90
 51
180
  0
LINE
  5
A47
330
A02
100
AcDbEntity
  8
Sketch031
100
AcDbLine
 10
-15.1686
 20
8.81628
 30
0
 11
-0.05
 21
8.81628
 31
0
  0
ARC
  5
A48
330
A02
100
AcDbEntity
  8
Sketch031
100
AcDbCircle
 10
-0.05
 20
8.76628
 30
0
 40
0.05
100
AcDbArc
 50
0
 51
90
  0
LINE
  5
A49
330
A02
100
AcDbEntity
  8
Sketch031
100
AcDbLine
 10
-0.05
 20
15.4163
 30
0
 11
-15.1686
 21
15.4163
 31
0
  0
ARC
  5
A4A
330
A02
100
AcDbEntity
  8
Sketch031
100
AcDbCircle
 10
-15.1686
 20
15.3663
 30
0
 40
0.05
100
AcDbArc
 50
90
 51
180
  0
LINE
  5
A4B
330
A02
100
AcDbEntity
  8
Sketch031
100
AcDbLine
 10
-15.2186
 20
15.3663
 30
0
 11
-15.2186
 21
12.7663
 31
0
  0
ARC
  5
A4C
330
A02
100
AcDbEntity
  8
Sketch031
100
AcDbCircle
 10
-15.1686
 20
12.7663
 30
0
 40
0.05
100
AcDbArc
 50
180
 51
-90
  0
LINE
  5
A4D
330
A02
100
AcDbEntity
  8
Sketch031
100
AcDbLine
 10
-15.1686
 20
12.7163
 30
0
 11
-0.05
 21
12.7163
 31
0
  0
ARC
  5
A4E
330
A02
100
AcDbEntity
  8
Sketch031
100
AcDbCircle
 10
-0.05
 20
12.7663
 30
0
 40
0.05
100
AcDbArc
 50
-90
 51
0
  0
LINE
  5
A4F
330
A02
100
AcDbEntity
  8
Sketch031
100
AcDbLine
 10
0
 20
12.7663
 30
0
 11
0
 21
15.3663
 31
0
  0
ARC
  5
A50
330
A02
100
AcDbEntity
  8
Sketch031
100
AcDbCircle
 10
-0.05
 20
15.3663
 30
0
 40
0.05
100
AcDbArc
 50
0
 51
90
  0
LINE
  5
A51
330
A02
100
AcDbEntity
  8
Sketch031
100
AcDbLine
 10
-0.05
 20
21.9163
 30
0
 11
-15.1686
 21
21.9163
 31
0
  0
ARC
  5
A52
330
A02
100
AcDbEntity
  8
Sketch031
100
AcDbCircle
 10
-15.1686
 20
21.8663
 30
0
 40
0.05
100
AcDbArc
 50
90
 51
180
  0
LINE
  5
A53
330
A02
100
AcDbEntity
  8
Sketch031
100
AcDbLine
 10
-15.2186
 20
21.8663
 30
0
 11
-15.2186
 21
19.3663
 31
0
  0
ARC
  5
A54
330
A02
100
AcDbEntity
  8
Sketch031
100
AcDbCircle
 10
-15.1686
 20
19.3663
 30
0
 40
0.05
100
AcDbArc
 50
180
 51
-90
  0
LINE
  5
A55
330
A02
100
AcDbEntity
  8
Sketch031
100
AcDbLine
 10
-15.1686
 20
19.3163
 30
0
 11
-0.05
 21
19.3163
 31
0
  0
ARC
  5
A56
330
A02
100
AcDbEntity
  8
Sketch031
100
AcDbCircle
 10
-0.05
 20
19.3663
 30
0
 40
0.05
100
AcDbArc
 50
-90
 51
0
  0
LINE
  5
A57
330
A02
100
AcDbEntity
  8
Sketch031
100
AcDbLine
 10
0
 20
19.3663
 30
0
 11
0
 21
21.8663
 31
0
  0
ARC
  5
A58
330
A02
100
AcDbEntity
  8
Sketch031
100
AcDbCircle
 10
-0.05
 20
21.8663
 30
0
 40
0.05
100
AcDbArc
 50
0
 51
90
  0
LINE
  5
A59
330
A02
100
AcDbEntity
  8
Sketch031
100
AcDbLine
 10
7.11148
 20
5.19508
 30
0
 11
7.11148
 21
19.6855
 31
0
  0
ARC
  5
A5A
330
A02
100
AcDbEntity
  8
Sketch031
100
AcDbCircle
 10
7.16148
 20
19.6855
 30
0
 40
0.05
100
AcDbArc
 50
90
 51
180
  0
LINE
  5
A5B
330
A02
100
AcDbEntity
  8
Sketch031
100
AcDbLine
 10
7.16148
 20
19.7355
 30
0
 11
9.56148
 21
19.7355
 31
0
  0
ARC
  5
A5C
330
A02
100
AcDbEntity
  8
Sketch031
100
AcDbCircle
 10
9.56148
 20
19.6855
 30
0
 40
0.05
100
AcDbArc
 50
0
 51
90
  0
LINE
  5
A5D
330
A02
100
AcDbEntity
  8
Sketch031
100
AcDbLine
 10
9.61148
 20
19.6855
 30
0
 11
9.61148
 21
5.19508
 31
0
  0
ARC
  5
A5E
330
A02
100
AcDbEntity
  8
Sketch031
100
AcDbCircle
 10
9.56148
 20
5.19508
 30
0
 40
0.05
100
AcDbArc
 50
-90
 51
0
  0
LINE
  5
A5F
330
A02
100
AcDbEntity
  8
Sketch031
100
AcDbLine
 10
9.56148
 20
5.14508
 30
0
 11
7.16148
 21
5.14508
 31
0
  0
ARC
  5
A60
330
A02
100
AcDbEntity
  8
Sketch031
100
AcDbCircle
 10
7.16148
 20
5.19508
 30
0
 40
0.05
100
AcDbArc
 50
180
 51
-90
  0
LINE
  5
A61
330
A02
100
AcDbEntity
  8
Sketch031
100
AcDbLine
 10
7.11148
 20
-19.6855
 30
0
 11
7.11148
 21
-5.19508
 31
0
  0
ARC
  5
A62
330
A02
100
AcDbEntity
  8
Sketch031
100
AcDbCircle
 10
7.16148
 20
-5.19508
 30
0
 40
0.05
100
AcDbArc
 50
90
 51
180
  0
LINE
  5
A63
330
A02
100
AcDbEntity
  8
Sketch031
100
AcDbLine
 10
7.16148
 20
-5.14508
 30
0
 11
9.46148
 21
-5.14508
 31
0
  0
ARC
  5
A64
330
A02
100
AcDbEntity
  8
Sketch031
100
AcDbCircle
 10
9.46148
 20
-5.19508
 30
0
 40
0.05
100
AcDbArc
 50
0
 51
90
  0
LINE
  5
A65
330
A02
100
AcDbEntity
  8
Sketch031
100
AcDbLine
 10
9.51148
 20
-5.19508
 30
0
 11
9.51148
 21
-19.6855
 31
0
  0
ARC
  5
A66
330
A02
100
AcDbEntity
  8
Sketch031
100
AcDbCircle
 10
9.46148
 20
-19.6855
 30
0
 40
0.05
100
AcDbArc
 50
-90
 51
0
  0
LINE
  5
A67
330
A02
100
AcDbEntity
  8
Sketch031
100
AcDbLine
 10
9.46148
 20
-19.7355
 30
0
 11
7.16148
 21
-19.7355
 31
0
  0
ARC
  5
A68
330
A02
100
AcDbEntity
  8
Sketch031
100
AcDbCircle
 10
7.16148
 20
-19.6855
 30
0
 40
0.05
100
AcDbArc
 50
180
 51
-90
  0
ENDSEC
  0
SECTION
  2
OBJECTS
  0
DICTIONARY
  5
F000
330
0
100
AcDbDictionary
  3
ACAD_GROUP
350
F001
  0
DICTIONARY
  5
F001
330
F000
100
AcDbDictionary
  0
ENDSEC
  0
EOF