0
SECTION
2
HEADER
9
$INSUNITS
70
4
9
$ACADVER
1
AC1014
9
$HANDSEED
5
FFFF
0
ENDSEC
0
SECTION
2
TABLES
0
TABLE
2
VPORT
5
8
100
AcDbSymbolTable
0
ENDTAB
0
TABLE
2
LTYPE
5
5
100
AcDbSymbolTable
0
LTYPE
5
14
100
AcDbSymbolTableRecord
100
AcDbLinetypeTableRecord
2
BYBLOCK
70
0
0
LTYPE
5
15
100
AcDbSymbolTableRecord
100
AcDbLinetypeTableRecord
2
BYLAYER
70
0
0
ENDTAB
0
TABLE
2
LAYER
5
2
100
AcDbSymbolTable
70
2
0
LAYER
5
50
100
AcDbSymbolTableRecord
100
AcDbLayerTableRecord
2
0
70
0
6
CONTINUOUS
0
ENDTAB
0
TABLE
2
STYLE
5
3
100
AcDbSymbolTable
70
1
0
STYLE
5
11
100
AcDbSymbolTableRecord
100
AcDbTextStyleTableRecord
2
STANDARD
70
0
0
ENDTAB
0
TABLE
2
VIEW
5
6
100
AcDbSymbolTable
70
0
0
ENDTAB
0
TABLE
2
UCS
5
7
100
AcDbSymbolTable
70
0
0
ENDTAB
0
TABLE
2
APPID
5
9
100
AcDbSymbolTable
70
2
0
APPID
5
12
100
AcDbSymbolTableRecord
100
AcDbRegAppTableRecord
2
ACAD
70
0
0
ENDTAB
0
TABLE
2
DIMSTYLE
5
A
100
AcDbSymbolTable
70
1
0
ENDTAB
0
TABLE
2
BLOCK_RECORD
5
1
100
AcDbSymbolTable
70
1
0
BLOCK_RECORD
5
1F
100
AcDbSymbolTableRecord
100
AcDbBlockTableRecord
2
*MODEL_SPACE
0
BLOCK_RECORD
5
1B
100
AcDbSymbolTableRecord
100
AcDbBlockTableRecord
2
*PAPER_SPACE
0
ENDTAB
0
ENDSEC
0
SECTION
2
BLOCKS
0
BLOCK
5
20
100
AcDbEntity
100
AcDbBlockBegin
2
*MODEL_SPACE
0
ENDBLK
5
21
100
AcDbEntity
100
AcDbBlockEnd
0
BLOCK
5
1C
100
AcDbEntity
100
AcDbBlockBegin
2
*PAPER_SPACE
0
ENDBLK
5
1D
100
AcDbEntity
100
AcDbBlockEnd
0
ENDSEC
0
SECTION
2
ENTITIES
0
LWPOLYLINE
5
100
100
AcDbEntity
8
0
100
AcDbPolyline
90
4
70
1
43
0.0
10
-222.40000000000003
20
-222.00000000000011
10
-222.40000000000003
20
-225.00000000000011
10
-237.60000000000002
20
-225.00000000000011
10
-237.60000000000002
20
-222.00000000000011
0
CIRCLE
5
101
100
AcDbEntity
8
0
100
AcDbCircle
10
-317
20
209.00000000000003
30
0
40
2.1000000000000001
210
0
220
0
230
1
0
CIRCLE
5
102
100
AcDbEntity
8
0
100
AcDbCircle
10
-16
20
209.00000000000003
30
0
40
2.1000000000000001
210
0
220
0
230
1
0
LWPOLYLINE
5
103
100
AcDbEntity
8
0
100
AcDbPolyline
90
4
70
1
43
0.0
10
-107.60000000000181
20
225
10
-107.60000000000181
20
222
10
-92.399999999998215
20
222
10
-92.399999999998215
20
225
0
CIRCLE
5
104
100
AcDbEntity
8
0
100
AcDbCircle
10
-317
20
-209.00000000000003
30
0
40
2.1000000000000001
210
0
220
0
230
1
0
LWPOLYLINE
5
105
100
AcDbEntity
8
0
100
AcDbPolyline
90
4
70
1
43
0.0
10
-92.399999999998215
20
-225
10
-107.60000000000181
20
-225
10
-107.60000000000181
20
-222
10
-92.399999999998215
20
-222
0
LWPOLYLINE
5
106
100
AcDbEntity
8
0
100
AcDbPolyline
90
4
70
1
43
0.0
10
-237.60000000000002
20
222.00000000000011
10
-222.40000000000003
20
222.00000000000011
10
-222.40000000000003
20
225.00000000000011
10
-237.60000000000002
20
225.00000000000011
0
CIRCLE
5
107
100
AcDbEntity
8
0
100
AcDbCircle
10
-317
20
0
30
0
40
2.1000000000000001
210
0
220
0
230
1
0
CIRCLE
5
108
100
AcDbEntity
8
0
100
AcDbCircle
10
-16
20
-209.00000000000003
30
0
40
2.1000000000000001
210
0
220
0
230
1
0
LWPOLYLINE
5
109
100
AcDbEntity
8
0
100
AcDbPolyline
90
60
70
1
43
0.0
10
-218.5
20
227.00000000000003
42
0.41421356237309503
10
-216.50000000000003
20
225.00000000000003
10
-113.50000000000001
20
225.00000000000003
42
0.41421356237309503
10
-111.5
20
227.00000000000003
42
-0.41421356237309503
10
-109.50000000000001
20
229.00000000000003
10
-90.5
20
229.00000000000003
42
-0.41421356237309503
10
-88.5
20
227.00000000000003
42
0.41421356237309503
10
-86.5
20
225
10
-0.49999999999999906
20
225.00000000000003
42
-0.41421356237309498
10
9.0205620750793969e-16
20
224.50000000000003
10
4.4408920985006262e-15
20
-151.6139715098069
42
-0.41421356237309531
10
-1.5000000000000002
20
-153.1139715098069
10
-7.5
20
-153.1139715098069
42
0.41421356237309503
10
-9
20
-154.6139715098069
10
-9
20
-165.61397150980693
42
0.41421356237309503
10
-7.5
20
-167.1139715098069
10
-1.4999999999999989
20
-167.1139715098069
42
-0.41421356237309498
10
1.0000000000000001e-15
20
-168.6139715098069
10
7.9797279894933126e-15
20
-224.50000000000003
42
-0.41421356237309509
10
-0.50000000000000711
20
-225.00000000000003
10
-86.5
20
-225.00000000000003
42
0.41421356237309503
10
-88.500000000000014
20
-227.00000000000003
42
-0.41421356237309503
10
-90.5
20
-229.00000000000003
10
-109.50000000000001
20
-229.00000000000003
42
-0.41421356237309503
10
-111.50000000000003
20
-227.00000000000003
42
0.41421356237309503
10
-113.50000000000001
20
-225.00000000000003
10
-216.50000000000003
20
-225.00000000000003
42
0.41421356237309503
10
-218.5
20
-227.00000000000003
42
-0.41421356237309503
10
-220.5
20
-229.00000000000003
10
-239.50000000000003
20
-229.00000000000003
42
-0.41421356237309503
10
-241.50000000000003
20
-227.00000000000003
42
0.41421356237309503
10
-243.5
20
-225.00000000000003
10
-329.5
20
-225
42
-0.41421356237309503
10
-330
20
-224.50000000000003
10
-329.99999999999994
20
-134.00000000000057
42
-0.23606797749959843
10
-329.69999999999982
20
-133.39999999999972
42
0.72075922005567028
10
-330.00000000000006
20
-132.5
10
-333.5
20
-132.49999999999997
42
-0.41421356237309503
10
-334
20
-132
10
-334.00000000000006
20
-118
42
-0.41421356237309503
10
-333.5
20
-117.5
10
-330.00000000000006
20
-117.50000000000001
42
0.7207592200555083
10
-329.70000000000005
20
-116.60000000000026
42
-0.23606797749951591
10
-330
20
-115.99999999999957
10
-330
20
115.99999999999957
42
-0.23606797749953584
10
-329.69999999999999
20
116.60000000000032
42
0.720759220055465
10
-330.00000000000006
20
117.5
10
-333.5
20
117.50000000000003
42
-0.41421356237309503
10
-334
20
118
10
-334.00000000000006
20
132
42
-0.41421356237309503
10
-333.5
20
132.50000000000003
10
-330.00000000000006
20
132.5
42
0.72075922005567028
10
-329.69999999999982
20
133.39999999999972
42
-0.23606797749959843
10
-330
20
134.00000000000057
10
-330
20
224.50000000000003
42
-0.41421356237309503
10
-329.5
20
225.00000000000003
10
-243.5
20
225.00000000000003
42
0.41421356237309503
10
-241.50000000000003
20
227.00000000000003
42
-0.41421356237309503
10
-239.50000000000003
20
229.00000000000003
10
-220.5
20
229.00000000000003
42
-0.41421356237309503
0
ENDSEC
0
SECTION
2
OBJECTS
0
DICTIONARY
5
C
100
AcDbDictionary
3
ACAD_GROUP
350
D
3
ACAD_MLINESTYLE
350
17
0
DICTIONARY
5
D
100
AcDbDictionary
0
DICTIONARY
5
1A
330
C
100
AcDbDictionary
0
DICTIONARY
5
17
100
AcDbDictionary
0
ENDSEC
0
EOF
