0
SECTION
2
HEADER
9
$INSUNITS
70
4
9
$ACADVER
1
AC1014
9
$HANDSEED
5
FFFF
0
ENDSEC
0
SECTION
2
TABLES
0
TABLE
2
VPORT
5
8
100
AcDbSymbolTable
0
ENDTAB
0
TABLE
2
LTYPE
5
5
100
AcDbSymbolTable
0
LTYPE
5
14
100
AcDbSymbolTableRecord
100
AcDbLinetypeTableRecord
2
BYBLOCK
70
0
0
LTYPE
5
15
100
AcDbSymbolTableRecord
100
AcDbLinetypeTableRecord
2
BYLAYER
70
0
0
ENDTAB
0
TABLE
2
LAYER
5
2
100
AcDbSymbolTable
70
2
0
LAYER
5
50
100
AcDbSymbolTableRecord
100
AcDbLayerTableRecord
2
0
70
0
6
CONTINUOUS
0
ENDTAB
0
TABLE
2
STYLE
5
3
100
AcDbSymbolTable
70
1
0
STYLE
5
11
100
AcDbSymbolTableRecord
100
AcDbTextStyleTableRecord
2
STANDARD
70
0
0
ENDTAB
0
TABLE
2
VIEW
5
6
100
AcDbSymbolTable
70
0
0
ENDTAB
0
TABLE
2
UCS
5
7
100
AcDbSymbolTable
70
0
0
ENDTAB
0
TABLE
2
APPID
5
9
100
AcDbSymbolTable
70
2
0
APPID
5
12
100
AcDbSymbolTableRecord
100
AcDbRegAppTableRecord
2
ACAD
70
0
0
ENDTAB
0
TABLE
2
DIMSTYLE
5
A
100
AcDbSymbolTable
70
1
0
ENDTAB
0
TABLE
2
BLOCK_RECORD
5
1
100
AcDbSymbolTable
70
1
0
BLOCK_RECORD
5
1F
100
AcDbSymbolTableRecord
100
AcDbBlockTableRecord
2
*MODEL_SPACE
0
BLOCK_RECORD
5
1B
100
AcDbSymbolTableRecord
100
AcDbBlockTableRecord
2
*PAPER_SPACE
0
ENDTAB
0
ENDSEC
0
SECTION
2
BLOCKS
0
BLOCK
5
20
100
AcDbEntity
100
AcDbBlockBegin
2
*MODEL_SPACE
0
ENDBLK
5
21
100
AcDbEntity
100
AcDbBlockEnd
0
BLOCK
5
1C
100
AcDbEntity
100
AcDbBlockBegin
2
*PAPER_SPACE
0
ENDBLK
5
1D
100
AcDbEntity
100
AcDbBlockEnd
0
ENDSEC
0
SECTION
2
ENTITIES
0
LWPOLYLINE
5
100
100
AcDbEntity
8
0
100
AcDbPolyline
90
52
70
1
43
0.0
10
229.00000000000003
20
109.50000000000001
42
0.41421356237309503
10
227.00000000000003
20
111.50000000000003
42
-0.41421356237309503
10
225
20
113.50000000000001
10
225.00000000000003
20
216.50000000000003
42
-0.41421356237309503
10
227.00000000000003
20
218.5
42
0.41421356237309503
10
229.00000000000003
20
220.5
10
229.00000000000003
20
239.50000000000003
42
0.41421356237309503
10
227.00000000000003
20
241.50000000000003
42
-0.41421356237309503
10
225
20
243.5
10
225.00000000000003
20
329.5
42
0.41421356237309503
10
224.50000000000003
20
330
10
134.00000000000057
20
330
42
0.23606797749956715
10
133.39999999999981
20
329.69999999999993
42
-0.72075922005573778
10
132.5
20
330.00000000000006
10
132.50000000000003
20
333.5
42
0.41421356237309503
10
132
20
334
10
118
20
334
42
0.41421356237309503
10
117.5
20
333.5
10
117.50000000000001
20
330.00000000000006
42
-0.720759220055465
10
116.60000000000028
20
329.69999999999999
42
0.23606797749953587
10
115.99999999999957
20
330
10
-115.99999999999957
20
330
42
0.23606797749953587
10
-116.60000000000032
20
329.69999999999999
42
-0.72075922005573501
10
-117.50000000000001
20
330.00000000000045
10
-117.5
20
333.5
42
0.41421356237309503
10
-118
20
334
10
-132
20
334
42
0.41421356237309503
10
-132.50000000000003
20
333.5
10
-132.5
20
330.00000000000023
42
-0.7207592200558457
10
-133.39999999999978
20
329.69999999999993
42
0.23606797749956715
10
-134.00000000000057
20
330
10
-224.50000000000003
20
330
42
0.41421356237309503
10
-225.00000000000003
20
329.5
10
-225.00000000000003
20
243.5
42
-0.41421356237309503
10
-227.00000000000003
20
241.50000000000003
42
0.41421356237309503
10
-229.00000000000003
20
239.50000000000003
10
-229.00000000000003
20
220.5
42
0.41421356237309503
10
-227.00000000000003
20
218.5
42
-0.41421356237309503
10
-225.00000000000003
20
216.50000000000003
10
-225.00000000000003
20
113.50000000000001
42
-0.41421356237309503
10
-227.00000000000003
20
111.5
42
0.41421356237309503
10
-229.00000000000003
20
109.50000000000001
10
-229.00000000000003
20
90.5
42
0.41421356237309503
10
-227.00000000000003
20
88.5
42
-0.41421356237309503
10
-225
20
86.5
10
-225.00000000000003
20
0.50000000000000711
42
0.4142135623730992
10
-224.50000000000003
20
0
10
224.50000000000003
20
0
42
0.41421356237309503
10
225.00000000000003
20
0.50000000000000711
10
225.00000000000003
20
86.5
42
-0.41421356237309503
10
227.00000000000003
20
88.500000000000014
42
0.41421356237309503
10
229.00000000000003
20
90.5
0
CIRCLE
5
101
100
AcDbEntity
8
0
100
AcDbCircle
10
120.50000000000031
20
89
30
0
40
2
210
0
220
0
230
1
0
CIRCLE
5
102
100
AcDbEntity
8
0
100
AcDbCircle
10
145.50000000000028
20
89
30
0
40
2
210
0
220
0
230
1
0
LWPOLYLINE
5
103
100
AcDbEntity
8
0
100
AcDbPolyline
90
4
70
1
43
0.0
10
222
20
107.60000000000181
10
222
20
92.399999999998215
10
225
20
92.399999999998215
10
225
20
107.60000000000181
0
CIRCLE
5
104
100
AcDbEntity
8
0
100
AcDbCircle
10
145.50000000000028
20
64
30
0
40
2
210
0
220
0
230
1
0
CIRCLE
5
105
100
AcDbEntity
8
0
100
AcDbCircle
10
209.00000000000003
20
16
30
0
40
2.1000000000000001
210
0
220
0
230
1
0
CIRCLE
5
106
100
AcDbEntity
8
0
100
AcDbCircle
10
120.50000000000031
20
63.999999999999986
30
0
40
2
210
0
220
0
230
1
0
LWPOLYLINE
5
107
100
AcDbEntity
8
0
100
AcDbPolyline
90
20
70
1
43
0.0
10
-169.00000000000003
20
203
42
0.41421356237309503
10
-168
20
202
10
-164
20
202.00000000000003
42
-0.41421356237309503
10
-162.99999999999997
20
201
10
-162.99999999999997
20
129
42
-0.41421356237309503
10
-164
20
128
10
-168
20
128
42
0.41421356237309503
10
-169.00000000000003
20
127.00000000000001
10
-169
20
114.99999999999899
42
-0.99999999999999989
10
-170
20
115.00000000000101
10
-170
20
295
42
-0.41421356237309503
10
-165
20
300
10
125.00000000000007
20
300
42
-0.41421356237309398
10
130.00000000000003
20
295
10
130
20
286.41378806312002
42
-0.99999999999999989
10
129.00000000000006
20
286.41378806310814
10
129.00000000000009
20
295
42
0.4142135623730937
10
125.00000000000007
20
299
10
-165
20
299
42
0.41421356237309503
10
-169
20
295
0
LWPOLYLINE
5
108
100
AcDbEntity
8
0
100
AcDbPolyline
90
4
70
1
43
0.0
10
-222.00000000000011
20
237.60000000000002
10
-222.00000000000011
20
222.40000000000003
10
-225.00000000000011
20
222.40000000000003
10
-225.00000000000011
20
237.60000000000002
0
LWPOLYLINE
5
109
100
AcDbEntity
8
0
100
AcDbPolyline
90
12
70
1
43
0.0
10
125.00000000000007
20
31
10
-165
20
31.000000000000014
42
-0.41421356237309503
10
-169.00000000000003
20
35
10
-169
20
112.00000000000001
42
0.99999999999999989
10
-170
20
112.00000000000001
10
-170
20
35
42
0.41421356237309503
10
-165
20
30
10
125.00000000000006
20
30
42
0.41421356237309503
10
130.00000000000003
20
35
10
130
20
43.586211936891878
42
0.99999999999999989
10
129.00000000000006
20
43.586211936891878
10
129.00000000000003
20
34.999999999999986
42
-0.4142135623730937
0
CIRCLE
5
110
100
AcDbEntity
8
0
100
AcDbCircle
10
-156.99999999998178
20
128.00000000001114
30
0
40
2
210
0
220
0
230
1
0
CIRCLE
5
111
100
AcDbEntity
8
0
100
AcDbCircle
10
125
20
165.00000000008342
30
0
40
2
210
0
220
0
230
1
0
LWPOLYLINE
5
112
100
AcDbEntity
8
0
100
AcDbPolyline
90
4
70
1
43
0.0
10
-225
20
92.399999999998215
10
-225
20
107.60000000000181
10
-222
20
107.60000000000181
10
-222
20
92.399999999998215
0
CIRCLE
5
113
100
AcDbEntity
8
0
100
AcDbCircle
10
120.50000000000028
20
241.00000000013148
30
0
40
2
210
0
220
0
230
1
0
CIRCLE
5
114
100
AcDbEntity
8
0
100
AcDbCircle
10
0
20
317
30
0
40
2.1000000000000001
210
0
220
0
230
1
0
LWPOLYLINE
5
115
100
AcDbEntity
8
0
100
AcDbPolyline
90
4
70
1
43
0.0
10
222.00000000000011
20
237.60000000000002
10
222.00000000000011
20
222.40000000000003
10
225.00000000000011
20
222.40000000000003
10
225.00000000000011
20
237.60000000000002
0
LWPOLYLINE
5
116
100
AcDbEntity
8
0
100
AcDbPolyline
90
4
70
1
43
0.0
10
129.00000000000006
20
281.41378806311081
10
129.00000000000006
20
48.58621193689217
42
0.99999999999999989
10
130.00000000000003
20
48.58621193689217
10
130.00000000000003
20
281.413788063114
42
0.99999999999999989
0
CIRCLE
5
117
100
AcDbEntity
8
0
100
AcDbCircle
10
-157
20
202.00000000001307
30
0
40
2
210
0
220
0
230
1
0
CIRCLE
5
118
100
AcDbEntity
8
0
100
AcDbCircle
10
-209.00000000000003
20
317
30
0
40
2.1000000000000001
210
0
220
0
230
1
0
CIRCLE
5
119
100
AcDbEntity
8
0
100
AcDbCircle
10
145.50000000000028
20
241.00000000013148
30
0
40
2
210
0
220
0
230
1
0
CIRCLE
5
120
100
AcDbEntity
8
0
100
AcDbCircle
10
120.50000000000028
20
266.00000000013148
30
0
40
2
210
0
220
0
230
1
0
CIRCLE
5
121
100
AcDbEntity
8
0
100
AcDbCircle
10
145.50000000000028
20
266.00000000013142
30
0
40
2
210
0
220
0
230
1
0
CIRCLE
5
122
100
AcDbEntity
8
0
100
AcDbCircle
10
-209.00000000000003
20
16
30
0
40
2.1000000000000001
210
0
220
0
230
1
0
CIRCLE
5
123
100
AcDbEntity
8
0
100
AcDbCircle
10
-19.999999999958405
20
40
30
0
40
2
210
0
220
0
230
1
0
CIRCLE
5
124
100
AcDbEntity
8
0
100
AcDbCircle
10
-20
20
290.00000000008254
30
0
40
2
210
0
220
0
230
1
0
CIRCLE
5
125
100
AcDbEntity
8
0
100
AcDbCircle
10
209.00000000000003
20
317
30
0
40
2.1000000000000001
210
0
220
0
230
1
0
ENDSEC
0
SECTION
2
OBJECTS
0
DICTIONARY
5
C
100
AcDbDictionary
3
ACAD_GROUP
350
D
3
ACAD_MLINESTYLE
350
17
0
DICTIONARY
5
D
100
AcDbDictionary
0
DICTIONARY
5
1A
330
C
100
AcDbDictionary
0
DICTIONARY
5
17
100
AcDbDictionary
0
ENDSEC
0
EOF
