0
SECTION
2
HEADER
9
$INSUNITS
70
4
9
$ACADVER
1
AC1014
9
$HANDSEED
5
FFFF
0
ENDSEC
0
SECTION
2
TABLES
0
TABLE
2
VPORT
5
8
100
AcDbSymbolTable
0
ENDTAB
0
TABLE
2
LTYPE
5
5
100
AcDbSymbolTable
0
LTYPE
5
14
100
AcDbSymbolTableRecord
100
AcDbLinetypeTableRecord
2
BYBLOCK
70
0
0
LTYPE
5
15
100
AcDbSymbolTableRecord
100
AcDbLinetypeTableRecord
2
BYLAYER
70
0
0
ENDTAB
0
TABLE
2
LAYER
5
2
100
AcDbSymbolTable
70
2
0
LAYER
5
50
100
AcDbSymbolTableRecord
100
AcDbLayerTableRecord
2
0
70
0
6
CONTINUOUS
0
ENDTAB
0
TABLE
2
STYLE
5
3
100
AcDbSymbolTable
70
1
0
STYLE
5
11
100
AcDbSymbolTableRecord
100
AcDbTextStyleTableRecord
2
STANDARD
70
0
0
ENDTAB
0
TABLE
2
VIEW
5
6
100
AcDbSymbolTable
70
0
0
ENDTAB
0
TABLE
2
UCS
5
7
100
AcDbSymbolTable
70
0
0
ENDTAB
0
TABLE
2
APPID
5
9
100
AcDbSymbolTable
70
2
0
APPID
5
12
100
AcDbSymbolTableRecord
100
AcDbRegAppTableRecord
2
ACAD
70
0
0
ENDTAB
0
TABLE
2
DIMSTYLE
5
A
100
AcDbSymbolTable
70
1
0
ENDTAB
0
TABLE
2
BLOCK_RECORD
5
1
100
AcDbSymbolTable
70
1
0
BLOCK_RECORD
5
1F
100
AcDbSymbolTableRecord
100
AcDbBlockTableRecord
2
*MODEL_SPACE
0
BLOCK_RECORD
5
1B
100
AcDbSymbolTableRecord
100
AcDbBlockTableRecord
2
*PAPER_SPACE
0
ENDTAB
0
ENDSEC
0
SECTION
2
BLOCKS
0
BLOCK
5
20
100
AcDbEntity
100
AcDbBlockBegin
2
*MODEL_SPACE
0
ENDBLK
5
21
100
AcDbEntity
100
AcDbBlockEnd
0
BLOCK
5
1C
100
AcDbEntity
100
AcDbBlockBegin
2
*PAPER_SPACE
0
ENDBLK
5
1D
100
AcDbEntity
100
AcDbBlockEnd
0
ENDSEC
0
SECTION
2
ENTITIES
0
LWPOLYLINE
5
100
100
AcDbEntity
8
0
100
AcDbPolyline
90
66
70
1
43
0.0
10
316.80038230905672
20
-2.0904910373988006
10
316.60257238683863
20
-2.0620502642470102
10
316.40836163062852
20
-2.0149352445857742
10
316.21950884310883
20
-1.949572659329085
10
316.03772430436794
20
-1.8665544421706746
10
315.86465428333884
20
-1.7666324189408202
10
315.70186612893224
20
-1.6507114989551956
10
315.55083407588313
20
-1.5198414800159912
10
315.41292589385165
20
-1.3752075412804463
10
315.28939050068982
20
-1.2181195100948663
10
315.18134665204821
20
-1.0499999999953515
10
315.08977280975103
20
-0.87237152729931422
10
315.01549828069471
20
-0.68684272296194204
10
314.95919570651614
20
-0.4950937645651543
10
314.92137497204561
20
-0.29886116036925603
10
314.90237858771115
20
-0.099922023225219897
10
314.90237858771115
20
0.099922023234498211
10
314.92137497204561
20
0.29886116037853894
10
314.95919570651614
20
0.49509376457443455
10
315.01549828069471
20
0.68684272297122417
10
315.08977280975103
20
0.8723715273086019
10
315.18134665204821
20
1.0500000000046386
10
315.28939050068982
20
1.2181195101041569
10
315.41292589385165
20
1.3752075412897415
10
315.55083407588313
20
1.5198414800252926
10
315.70186612893224
20
1.6507114989644989
10
315.86465428333884
20
1.7666324189501288
10
316.03772430436794
20
1.8665544421799902
10
316.21950884310883
20
1.9495726593384051
10
316.40836163062852
20
2.0149352445951001
10
316.60257238683863
20
2.0620502642563427
10
316.80038230905672
20
2.0904910374081398
10
316.99999999999551
20
2.1000000000046648
10
317.1996176909343
20
2.0904910374081456
10
317.39742761315244
20
2.0620502642563547
10
317.5916383693625
20
2.0149352445951187
10
317.78049115688219
20
1.9495726593384295
10
317.96227569562313
20
1.8665544421800191
10
318.13534571665224
20
1.7666324189501634
10
318.29813387105878
20
1.6507114989645397
10
318.449165924108
20
1.5198414800253359
10
318.58707410613937
20
1.3752075412897895
10
318.7106094993012
20
1.2181195101042095
10
318.81865334794281
20
1.0500000000046956
10
318.91022719023999
20
0.87237152730865952
10
318.9845017192963
20
0.68684272297128524
10
319.04080429347493
20
0.49509376457449816
10
319.07862502794546
20
0.29886116037860183
10
319.09762141227981
20
0.099922023234561702
10
319.09762141227981
20
-0.099922023225154297
10
319.07862502794546
20
-0.29886116036919508
10
319.04080429347493
20
-0.49509376456509241
10
318.9845017192963
20
-0.68684272296188031
10
318.91022719023999
20
-0.87237152729925804
10
318.81865334794281
20
-1.0499999999952965
10
318.7106094993012
20
-1.218119510094813
10
318.58707410613937
20
-1.3752075412803977
10
318.449165924108
20
-1.5198414800159488
10
318.29813387105878
20
-1.6507114989551552
10
318.13534571665224
20
-1.7666324189407845
10
317.96227569562313
20
-1.8665544421706466
10
317.78049115688219
20
-1.9495726593290619
10
317.5916383693625
20
-2.014935244585756
10
317.39742761315244
20
-2.0620502642469987
10
317.1996176909343
20
-2.0904910373987944
10
316.99999999999551
20
-2.0999999999953203
0
LWPOLYLINE
5
101
100
AcDbEntity
8
0
100
AcDbPolyline
90
66
70
1
43
0.0
10
242.55083407588415
20
18.519841480024148
10
242.70186612893329
20
18.650711498963357
10
242.86465428333983
20
18.766632418948991
10
243.03772430436908
20
18.866554442178852
10
243.21950884310994
20
18.949572659337264
10
243.4083616306296
20
19.014935244593964
10
243.60257238683971
20
19.062050264255198
10
243.80038230905774
20
19.090491037406998
10
243.99999999999659
20
19.100000000003526
10
244.19961769093536
20
19.090491037407006
10
244.39742761315344
20
19.062050264255213
10
244.59163836936355
20
19.014935244593982
10
244.78049115688324
20
18.949572659337292
10
244.96227569562407
20
18.866554442178877
10
245.13534571665332
20
18.766632418949023
10
245.2981338710598
20
18.650711498963403
10
245.449165924109
20
18.519841480024194
10
245.58707410614048
20
18.375207541288649
10
245.71060949930228
20
18.218119510103072
10
245.81865334794387
20
18.050000000003553
10
245.91022719024102
20
17.872371527307514
10
245.9845017192973
20
17.686842722970148
10
246.04080429347601
20
17.495093764573358
10
246.07862502794654
20
17.298861160377463
10
246.09762141228089
20
17.099922023233422
10
246.09762141228089
20
16.900077976773705
10
246.07862502794654
20
16.701138839629664
10
246.04080429347601
20
16.504906235433769
10
245.9845017192973
20
16.313157277036982
10
245.91022719024102
20
16.127628472699598
10
245.81865334794387
20
15.950000000003566
10
245.71060949930228
20
15.781880489904045
10
245.58707410614048
20
15.624792458718462
10
245.449165924109
20
15.480158519982915
10
245.2981338710598
20
15.349288501043707
10
245.13534571665332
20
15.233367581058072
10
244.96227569562407
20
15.133445557828216
10
244.78049115688324
20
15.050427340669794
10
244.59163836936355
20
14.985064755413106
10
244.39742761315344
20
14.937949735751861
10
244.19961769093536
20
14.909508962600064
10
243.99999999999659
20
14.900000000003539
10
243.80038230905774
20
14.909508962600061
10
243.60257238683971
20
14.93794973575185
10
243.4083616306296
20
14.985064755413086
10
243.21950884310994
20
15.050427340669774
10
243.03772430436908
20
15.133445557828187
10
242.86465428333983
20
15.233367581058037
10
242.70186612893329
20
15.349288501043663
10
242.55083407588415
20
15.480158519982867
10
242.41292589385264
20
15.624792458718415
10
242.28939050069087
20
15.781880489903994
10
242.18134665204929
20
15.950000000003508
10
242.08977280975208
20
16.127628472699548
10
242.01549828069579
20
16.313157277036918
10
241.95919570651722
20
16.504906235433705
10
241.92137497204666
20
16.701138839629603
10
241.90237858771226
20
16.900077976773641
10
241.90237858771226
20
17.099922023233358
10
241.92137497204666
20
17.298861160377399
10
241.95919570651722
20
17.495093764573294
10
242.01549828069579
20
17.686842722970084
10
242.08977280975208
20
17.872371527307461
10
242.18134665204929
20
18.050000000003497
10
242.28939050069087
20
18.218119510103016
10
242.41292589385264
20
18.375207541288603
0
LWPOLYLINE
5
102
100
AcDbEntity
8
0
100
AcDbPolyline
90
66
70
1
43
0.0
10
318.81865334794281
20
-188.04999999999464
10
318.91022719023999
20
-187.87237152729855
10
318.9845017192963
20
-187.68684272296122
10
319.04080429347493
20
-187.49509376456442
10
319.07862502794546
20
-187.29886116036849
10
319.09762141227981
20
-187.09992202322451
10
319.09762141227981
20
-186.90007797676483
10
319.07862502794546
20
-186.70113883962074
10
319.04080429347493
20
-186.50490623542484
10
318.9845017192963
20
-186.31315727702804
10
318.91022719023999
20
-186.1276284726907
10
318.81865334794281
20
-185.94999999999462
10
318.7106094993012
20
-185.78188048989514
10
318.58707410613937
20
-185.62479245870958
10
318.449165924108
20
-185.48015851997403
10
318.29813387105878
20
-185.34928850103481
10
318.13534571665224
20
-185.23336758104921
10
317.96227569562313
20
-185.13344555781936
10
317.78049115688219
20
-185.05042734066092
10
317.5916383693625
20
-184.98506475540421
10
317.39742761315244
20
-184.93794973574296
10
317.1996176909343
20
-184.90950896259119
10
316.99999999999551
20
-184.89999999999466
10
316.80038230905672
20
-184.90950896259119
10
316.60257238683863
20
-184.93794973574299
10
316.40836163062852
20
-184.98506475540424
10
316.21950884310883
20
-185.05042734066086
10
316.03772430436794
20
-185.13344555781936
10
315.86465428333884
20
-185.23336758104921
10
315.70186612893224
20
-185.34928850103486
10
315.55083407588313
20
-185.48015851997403
10
315.41292589385165
20
-185.62479245870961
10
315.28939050068982
20
-185.78188048989517
10
315.18134665204821
20
-185.9499999999947
10
315.08977280975103
20
-186.12762847269073
10
315.01549828069471
20
-186.3131572770281
10
314.95919570651614
20
-186.50490623542493
10
314.92137497204561
20
-186.70113883962085
10
314.90237858771115
20
-186.90007797676483
10
314.90237858771115
20
-187.09992202322454
10
314.92137497204561
20
-187.29886116036857
10
314.95919570651614
20
-187.49509376456447
10
315.01549828069471
20
-187.68684272296127
10
315.08977280975103
20
-187.87237152729861
10
315.18134665204821
20
-188.0499999999947
10
315.28939050068982
20
-188.2181195100942
10
315.41292589385165
20
-188.37520754127976
10
315.55083407588313
20
-188.51984148001532
10
315.70186612893224
20
-188.65071149895454
10
315.86465428333884
20
-188.76663241894016
10
316.03772430436794
20
-188.86655444216998
10
316.21950884310883
20
-188.94957265932842
10
316.40836163062852
20
-189.0149352445851
10
316.60257238683863
20
-189.06205026424641
10
316.80038230905672
20
-189.09049103739812
10
316.99999999999551
20
-189.09999999999462
10
317.1996176909343
20
-189.09049103739812
10
317.39742761315244
20
-189.06205026424632
10
317.5916383693625
20
-189.0149352445851
10
317.78049115688219
20
-188.94957265932842
10
317.96227569562313
20
-188.86655444216998
10
318.13534571665224
20
-188.76663241894008
10
318.29813387105878
20
-188.65071149895448
10
318.449165924108
20
-188.51984148001532
10
318.58707410613937
20
-188.37520754127974
10
318.7106094993012
20
-188.21811951009411
0
LWPOLYLINE
5
103
100
AcDbEntity
8
0
100
AcDbPolyline
90
66
70
1
43
0.0
10
18.040804293479184
20
-186.5049062354293
10
17.984501719300553
20
-186.3131572770325
10
17.910227190244235
20
-186.12762847269508
10
17.81865334794707
20
-185.94999999999911
10
17.710609499305452
20
-185.78188048989955
10
17.587074106143696
20
-185.62479245871398
10
17.44916592411219
20
-185.48015851997846
10
17.298133871063026
20
-185.34928850103921
10
17.135345716656509
20
-185.23336758105359
10
16.962275695627326
20
-185.13344555782371
10
16.780491156886452
20
-185.05042734066532
10
16.59163836936677
20
-184.98506475540864
10
16.39742761315663
20
-184.93794973574745
10
16.199617690938553
20
-184.90950896259559
10
15.999999999999774
20
-184.8999999999991
10
15.800382309060995
20
-184.90950896259559
10
15.602572386842921
20
-184.93794973574748
10
15.408361630632781
20
-184.98506475540867
10
15.219508843113097
20
-185.05042734066532
10
15.037724304372224
20
-185.13344555782379
10
14.864654283343038
20
-185.23336758105361
10
14.701866128936524
20
-185.34928850103927
10
14.55083407588736
20
-185.48015851997849
10
14.412925893855855
20
-185.62479245871398
10
14.289390500694093
20
-185.78188048989961
10
14.181346652052483
20
-185.94999999999911
10
14.089772809755313
20
-186.12762847269519
10
14.015498280698996
20
-186.31315727703256
10
13.959195706520367
20
-186.50490623542933
10
13.921374972049847
20
-186.70113883962526
10
13.902378587715489
20
-186.9000779767693
10
13.902378587715489
20
-187.09992202322894
10
13.921374972049847
20
-187.29886116037304
10
13.959195706520367
20
-187.49509376456894
10
14.015498280699001
20
-187.68684272296571
10
14.089772809755313
20
-187.8723715273031
10
14.181346652052483
20
-188.04999999999907
10
14.289390500694093
20
-188.2181195100986
10
14.412925893855853
20
-188.37520754128417
10
14.55083407588736
20
-188.51984148001972
10
14.701866128936524
20
-188.65071149895897
10
14.864654283343036
20
-188.76663241894454
10
15.037724304372224
20
-188.86655444217445
10
15.219508843113097
20
-188.94957265933289
10
15.408361630632781
20
-189.01493524458957
10
15.602572386842915
20
-189.06205026425081
10
15.800382309060995
20
-189.09049103740259
10
15.999999999999776
20
-189.09999999999908
10
16.199617690938553
20
-189.09049103740259
10
16.39742761315663
20
-189.06205026425081
10
16.59163836936677
20
-189.01493524458954
10
16.780491156886452
20
-188.94957265933286
10
16.962275695627326
20
-188.86655444217442
10
17.135345716656509
20
-188.76663241894454
10
17.298133871063026
20
-188.65071149895891
10
17.44916592411219
20
-188.51984148001972
10
17.587074106143696
20
-188.37520754128417
10
17.710609499305452
20
-188.2181195100986
10
17.81865334794707
20
-188.04999999999907
10
17.910227190244235
20
-187.87237152730307
10
17.984501719300553
20
-187.68684272296565
10
18.040804293479184
20
-187.49509376456882
10
18.078625027949702
20
-187.29886116037292
10
18.09762141228407
20
-187.09992202322891
10
18.09762141228407
20
-186.90007797676918
10
18.078625027949702
20
-186.70113883962523
0
LWPOLYLINE
5
104
100
AcDbEntity
8
0
100
AcDbPolyline
90
66
70
1
43
0.0
10
14.412925893855853
20
188.37520754128462
10
14.55083407588736
20
188.51984148002015
10
14.701866128936521
20
188.6507114989594
10
14.864654283343038
20
188.76663241894502
10
15.037724304372224
20
188.8665544421749
10
15.219508843113097
20
188.94957265933326
10
15.408361630632781
20
189.01493524458999
10
15.602572386842915
20
189.06205026425118
10
15.800382309060995
20
189.09049103740298
10
15.999999999999774
20
189.09999999999957
10
16.199617690938553
20
189.09049103740298
10
16.39742761315663
20
189.06205026425124
10
16.59163836936677
20
189.01493524458999
10
16.780491156886452
20
188.94957265933331
10
16.962275695627326
20
188.86655444217493
10
17.135345716656509
20
188.76663241894505
10
17.298133871063026
20
188.65071149895942
10
17.44916592411219
20
188.51984148002018
10
17.587074106143696
20
188.37520754128462
10
17.710609499305452
20
188.21811951009914
10
17.81865334794707
20
188.04999999999961
10
17.910227190244235
20
187.87237152730359
10
17.984501719300553
20
187.68684272296616
10
18.040804293479184
20
187.49509376456939
10
18.078625027949702
20
187.29886116037346
10
18.09762141228407
20
187.09992202322948
10
18.09762141228407
20
186.90007797676967
10
18.078625027949702
20
186.70113883962571
10
18.040804293479184
20
186.50490623542981
10
17.984501719300553
20
186.31315727703296
10
17.910227190244235
20
186.12762847269562
10
17.81865334794707
20
185.94999999999959
10
17.710609499305452
20
185.78188048990012
10
17.587074106143696
20
185.62479245871452
10
17.44916592411219
20
185.48015851997886
10
17.29813387106303
20
185.34928850103969
10
17.135345716656516
20
185.2333675810541
10
16.962275695627326
20
185.13344555782425
10
16.780491156886452
20
185.05042734066581
10
16.59163836936677
20
184.98506475540918
10
16.39742761315663
20
184.93794973574791
10
16.199617690938553
20
184.90950896259608
10
15.999999999999776
20
184.89999999999958
10
15.800382309060995
20
184.90950896259608
10
15.602572386842921
20
184.93794973574782
10
15.408361630632786
20
184.9850647554091
10
15.2195088431131
20
185.05042734066575
10
15.037724304372224
20
185.13344555782419
10
14.864654283343038
20
185.23336758105404
10
14.701866128936524
20
185.34928850103969
10
14.55083407588736
20
185.48015851997891
10
14.412925893855855
20
185.62479245871444
10
14.289390500694097
20
185.7818804899
10
14.181346652052483
20
185.94999999999959
10
14.089772809755313
20
186.12762847269562
10
14.015498280699001
20
186.31315727703293
10
13.959195706520367
20
186.50490623542976
10
13.921374972049847
20
186.70113883962563
10
13.902378587715489
20
186.90007797676967
10
13.902378587715488
20
187.09992202322937
10
13.921374972049847
20
187.29886116037346
10
13.959195706520367
20
187.49509376456933
10
14.015498280698996
20
187.68684272296608
10
14.089772809755313
20
187.87237152730347
10
14.181346652052476
20
188.0499999999995
10
14.289390500694093
20
188.21811951009903
0
LWPOLYLINE
5
105
100
AcDbEntity
8
0
100
AcDbPolyline
90
66
70
1
43
0.0
10
317.1996176909343
20
184.90950896260051
10
316.99999999999551
20
184.90000000000404
10
316.80038230905672
20
184.90950896260051
10
316.60257238683863
20
184.93794973575231
10
316.40836163062852
20
184.98506475541359
10
316.21950884310883
20
185.05042734067021
10
316.03772430436794
20
185.13344555782862
10
315.86465428333884
20
185.23336758105847
10
315.70186612893224
20
185.34928850104407
10
315.55083407588313
20
185.48015851998329
10
315.41292589385165
20
185.62479245871887
10
315.28939050068982
20
185.78188048990444
10
315.18134665204821
20
185.950000000004
10
315.08977280975103
20
186.12762847270002
10
315.01549828069471
20
186.31315727703739
10
314.95919570651614
20
186.50490623543416
10
314.92137497204561
20
186.70113883963009
10
314.90237858771115
20
186.9000779767741
10
314.90237858771115
20
187.0999220232338
10
314.92137497204561
20
187.29886116037787
10
314.95919570651614
20
187.49509376457371
10
315.01549828069471
20
187.68684272297054
10
315.08977280975103
20
187.87237152730793
10
315.18134665204821
20
188.05000000000399
10
315.28939050068982
20
188.21811951010346
10
315.41292589385165
20
188.37520754128903
10
315.55083407588313
20
188.51984148002461
10
315.70186612893224
20
188.6507114989638
10
315.86465428333884
20
188.76663241894943
10
316.03772430436794
20
188.86655444217934
10
316.21950884310883
20
188.94957265933769
10
316.40836163062852
20
189.01493524459443
10
316.60257238683863
20
189.06205026425565
10
316.80038230905672
20
189.09049103740745
10
316.99999999999551
20
189.100000000004
10
317.1996176909343
20
189.09049103740745
10
317.39742761315244
20
189.06205026425567
10
317.5916383693625
20
189.01493524459443
10
317.78049115688219
20
188.94957265933772
10
317.96227569562313
20
188.86655444217934
10
318.13534571665224
20
188.76663241894948
10
318.29813387105878
20
188.65071149896386
10
318.449165924108
20
188.51984148002464
10
318.58707410613937
20
188.37520754128914
10
318.7106094993012
20
188.21811951010352
10
318.81865334794281
20
188.05000000000402
10
318.91022719023999
20
187.87237152730802
10
318.9845017192963
20
187.6868427229706
10
319.04080429347493
20
187.49509376457382
10
319.07862502794546
20
187.29886116037792
10
319.09762141227981
20
187.09992202323383
10
319.09762141227981
20
186.90007797677413
10
319.07862502794546
20
186.70113883963009
10
319.04080429347493
20
186.50490623543431
10
318.9845017192963
20
186.31315727703742
10
318.91022719023999
20
186.12762847270005
10
318.81865334794281
20
185.950000000004
10
318.7106094993012
20
185.78188048990452
10
318.58707410613937
20
185.6247924587189
10
318.449165924108
20
185.48015851998332
10
318.29813387105878
20
185.34928850104419
10
318.13534571665224
20
185.23336758105853
10
317.96227569562313
20
185.13344555782862
10
317.78049115688219
20
185.05042734067024
10
317.5916383693625
20
184.98506475541359
10
317.39742761315244
20
184.93794973575231
0
LWPOLYLINE
5
106
100
AcDbEntity
8
0
100
AcDbPolyline
90
224
70
1
43
0.0
10
238.39999999999665
20
-199.69999999999573
10
238.26999490281838
20
-199.57916422151402
10
238.10596762843187
20
-199.51135814574684
10
237.92858732628343
20
-199.50512604631353
10
237.76020576675791
20
-199.56125323282203
10
237.62204078469921
20
-199.67266709365776
10
237.53150261065031
20
-199.82532831890342
10
237.49999999999665
20
-199.99999999999577
10
237.49999999999665
20
-202.99999999999579
10
237.46193976625233
20
-203.19134171617833
10
237.35355339058992
20
-203.35355339058904
10
237.19134171617924
20
-203.46193976625145
10
236.9999999999967
20
-203.49999999999579
10
222.99999999999685
20
-203.49999999999599
10
222.80865828381434
20
-203.46193976625159
10
222.64644660940363
20
-203.3535533905893
10
222.53806023374122
20
-203.1913417161785
10
222.49999999999687
20
-202.99999999999599
10
222.49999999999687
20
-199.99999999999602
10
222.4684973893433
20
-199.82532831890364
10
222.37795921529442
20
-199.67266709365802
10
222.23979423323561
20
-199.56125323282225
10
222.07141267371011
20
-199.50512604631371
10
221.89403237156171
20
-199.51135814574712
10
221.73000509717519
20
-199.57916422151436
10
221.5999999999969
20
-199.69999999999601
10
221.48056057943126
20
-199.82581379758489
10
221.33541019662189
20
-199.92082039324589
10
221.17231469040743
20
-199.97993674209681
10
220.99999999999693
20
-199.99999999999602
10
108.99999999999849
20
-199.99999999999767
10
108.82768530958792
20
-199.97993674209849
10
108.6645898033735
20
-199.9208203932476
10
108.51943942056415
20
-199.82581379758656
10
108.3999999999985
20
-199.69999999999771
10
108.2699949028202
20
-199.57916422151601
10
108.10596762843369
20
-199.51135814574877
10
107.92858732628524
20
-199.50512604631541
10
107.76020576675974
20
-199.56125323282393
10
107.622040784701
20
-199.67266709365973
10
107.53150261065208
20
-199.82532831890529
10
107.49999999999851
20
-199.9999999999977
10
107.49999999999851
20
-202.9999999999977
10
107.46193976625413
20
-203.19134171618029
10
107.35355339059177
20
-203.353553390591
10
107.19134171618106
20
-203.46193976625332
10
106.99999999999849
20
-203.49999999999767
10
92.999999999998678
20
-203.49999999999793
10
92.808658283816143
20
-203.46193976625358
10
92.646446609405416
20
-203.3535533905912
10
92.538060233743039
20
-203.19134171618046
10
92.499999999998693
20
-202.9999999999979
10
92.499999999998707
20
-199.9999999999979
10
92.468497389345075
20
-199.82532831890558
10
92.377959215296229
20
-199.6726670936599
10
92.239794233237475
20
-199.56125323282413
10
92.071412673711961
20
-199.50512604631564
10
91.894032371563526
20
-199.51135814574897
10
91.730005097176985
20
-199.57916422151618
10
91.599999999998715
20
-199.69999999999786
10
91.48056057943306
20
-199.82581379758685
10
91.335410196623684
20
-199.92082039324785
10
91.172314690409223
20
-199.97993674209877
10
90.999999999998678
20
-199.99999999999801
10
0.50000000000018496
20
-199.99999999999929
10
0.30865828381756605
20
-199.96193976625491
10
0.14644660940679832
20
-199.85355339059242
10
0.038060233744452568
20
-199.69134171618163
10
1.9300000000000004e-13
20
-199.49999999999889
10
1.9300000000000004e-13
20
199.49999999999889
10
0.038060233744452221
20
199.69134171618163
10
0.14644660940679799
20
199.85355339059242
10
0.3086582838175656
20
199.96193976625491
10
0.50000000000018496
20
199.99999999999929
10
90.999999999998721
20
200.0000000000006
10
91.172314690409223
20
199.97993674210142
10
91.335410196623684
20
199.92082039325049
10
91.48056057943306
20
199.82581379758952
10
91.599999999998715
20
199.70000000000059
10
91.730005097176985
20
199.57916422151894
10
91.894032371563526
20
199.5113581457517
10
92.071412673711961
20
199.5051260463184
10
92.239794233237475
20
199.56125323282691
10
92.377959215296229
20
199.67266709366268
10
92.468497389345075
20
199.82532831890833
10
92.499999999998707
20
200.0000000000006
10
92.499999999998693
20
203.00000000000063
10
92.538060233743039
20
203.19134171618322
10
92.646446609405416
20
203.3535533905939
10
92.808658283816143
20
203.46193976625628
10
92.999999999998678
20
203.50000000000063
10
106.99999999999849
20
203.50000000000085
10
107.19134171618106
20
203.46193976625648
10
107.35355339059177
20
203.35355339059413
10
107.46193976625413
20
203.19134171618342
10
107.49999999999851
20
203.00000000000082
10
107.49999999999851
20
200.00000000000085
10
107.53150261065208
20
199.8253283189085
10
107.622040784701
20
199.67266709366282
10
107.76020576675974
20
199.56125323282714
10
107.92858732628524
20
199.50512604631854
10
108.10596762843369
20
199.51135814575196
10
108.2699949028202
20
199.57916422151922
10
108.3999999999985
20
199.70000000000087
10
108.51943942056415
20
199.8258137975898
10
108.6645898033735
20
199.92082039325084
10
108.82768530958792
20
199.97993674210167
10
108.99999999999849
20
200.00000000000088
10
220.99999999999693
20
200.00000000000256
10
221.17231469040743
20
199.97993674210329
10
221.33541019662189
20
199.92082039325251
10
221.48056057943126
20
199.82581379759148
10
221.5999999999969
20
199.70000000000252
10
221.73000509717519
20
199.57916422152081
10
221.89403237156171
20
199.51135814575363
10
222.07141267371011
20
199.50512604632027
10
222.23979423323561
20
199.56125323282885
10
222.37795921529442
20
199.67266709366453
10
222.4684973893433
20
199.82532831891021
10
222.49999999999687
20
200.00000000000256
10
222.49999999999687
20
203.00000000000256
10
222.53806023374122
20
203.19134171618515
10
222.64644660940363
20
203.35355339059589
10
222.80865828381434
20
203.46193976625815
10
222.99999999999685
20
203.50000000000253
10
236.99999999999665
20
203.50000000000281
10
237.19134171617924
20
203.46193976625841
10
237.35355339058992
20
203.35355339059603
10
237.46193976625233
20
203.19134171618529
10
237.49999999999665
20
203.00000000000281
10
237.49999999999665
20
200.00000000000284
10
237.53150261065031
20
199.82532831891041
10
237.62204078469921
20
199.67266709366473
10
237.76020576675791
20
199.56125323282905
10
237.92858732628343
20
199.5051260463205
10
238.10596762843187
20
199.51135814575389
10
238.26999490281838
20
199.5791642215211
10
238.39999999999662
20
199.70000000000283
10
238.51943942056235
20
199.82581379759165
10
238.66458980337165
20
199.92082039325268
10
238.82768530958614
20
199.9799367421036
10
238.99999999999665
20
200.00000000000284
10
329.49999999999528
20
200.00000000000412
10
329.69134171617787
20
199.96193976625977
10
329.85355339058862
20
199.85355339059743
10
329.96193976625102
20
199.69134171618663
10
329.99999999999534
20
199.50000000000412
10
329.99999999999534
20
109.00000000000446
10
329.97993674209619
20
108.82768530959395
10
329.92082039324538
20
108.6645898033795
10
329.82581379758426
20
108.51943942057012
10
329.69999999999538
20
108.40000000000444
10
329.57916422151362
20
108.26999490282611
10
329.5113581457465
20
108.1059676284396
10
329.50512604631314
20
107.92858732629119
10
329.56125323282163
20
107.76020576676565
10
329.67266709365737
20
107.62204078470691
10
329.82532831890319
20
107.53150261065805
10
329.9999999999954
20
107.50000000000446
10
332.99999999999545
20
107.50000000000452
10
333.19134171617804
20
107.46193976626016
10
333.35355339058879
20
107.3535533905978
10
333.46193976625113
20
107.19134171618705
10
333.4999999999954
20
107.00000000000452
10
333.4999999999954
20
93.000000000004576
10
333.46193976625113
20
92.808658283822041
10
333.35355339058879
20
92.646446609411299
10
333.19134171617804
20
92.538060233748936
10
332.99999999999545
20
92.500000000004562
10
329.99999999999551
20
92.500000000004533
10
329.82532831890319
20
92.468497389350915
10
329.67266709365754
20
92.377959215302056
10
329.56125323282174
20
92.239794233243288
10
329.50512604631331
20
92.071412673717802
10
329.51135814574661
20
91.894032371569367
10
329.57916422151385
20
91.730005097182897
10
329.69999999999544
20
91.60000000000457
10
329.82581379758437
20
91.480560579438915
10
329.92082039324538
20
91.335410196629567
10
329.97993674209619
20
91.172314690415135
10
329.99999999999534
20
91.000000000004633
10
329.99999999999534
20
-90.999999999994941
10
329.97993674209619
20
-91.1723146904054
10
329.92082039324538
20
-91.335410196619833
10
329.82581379758437
20
-91.480560579429223
10
329.69999999999544
20
-91.59999999999485
10
329.57916422151385
20
-91.730005097173176
10
329.51135814574661
20
-91.894032371559661
10
329.50512604631331
20
-92.071412673708082
10
329.56125323282174
20
-92.239794233233582
10
329.67266709365754
20
-92.377959215292321
10
329.82532831890319
20
-92.468497389341181
10
329.99999999999551
20
-92.499999999994799
10
332.99999999999545
20
-92.49999999999477
10
333.19134171617804
20
-92.538060233739131
10
333.35355339058879
20
-92.646446609401494
10
333.46193976625113
20
-92.808658283812207
10
333.4999999999954
20
-92.999999999994742
10
333.4999999999954
20
-106.9999999999947
10
333.46193976625113
20
-107.19134171617725
10
333.35355339058879
20
-107.35355339058799
10
333.19134171617804
20
-107.46193976625035
10
332.99999999999545
20
-107.49999999999471
10
329.9999999999954
20
-107.49999999999474
10
329.82532831890319
20
-107.53150261064837
10
329.67266709365737
20
-107.62204078469722
10
329.56125323282163
20
-107.76020576675593
10
329.50512604631314
20
-107.92858732628149
10
329.5113581457465
20
-108.10596762842992
10
329.57916422151362
20
-108.26999490281644
10
329.69999999999538
20
-108.39999999999472
10
329.82581379758426
20
-108.51943942056042
10
329.92082039324538
20
-108.66458980336978
10
329.97993674209619
20
-108.82768530958421
10
329.99999999999534
20
-108.99999999999473
10
329.99999999999534
20
-199.49999999999443
10
329.96193976625102
20
-199.69134171617694
10
329.85355339058862
20
-199.85355339058771
10
329.69134171617787
20
-199.96193976625005
10
329.49999999999528
20
-199.99999999999443
10
238.99999999999665
20
-199.99999999999574
10
238.82768530958614
20
-199.97993674209653
10
238.66458980337165
20
-199.92082039324572
10
238.51943942056235
20
-199.8258137975846
0
ENDSEC
0
SECTION
2
OBJECTS
0
DICTIONARY
5
C
100
AcDbDictionary
3
ACAD_GROUP
350
D
3
ACAD_MLINESTYLE
350
17
0
DICTIONARY
5
D
100
AcDbDictionary
0
DICTIONARY
5
1A
330
C
100
AcDbDictionary
0
DICTIONARY
5
17
100
AcDbDictionary
0
ENDSEC
0
EOF
