0
SECTION
2
HEADER
9
$INSUNITS
70
4
9
$ACADVER
1
AC1014
9
$HANDSEED
5
FFFF
0
ENDSEC
0
SECTION
2
TABLES
0
TABLE
2
VPORT
5
8
100
AcDbSymbolTable
0
ENDTAB
0
TABLE
2
LTYPE
5
5
100
AcDbSymbolTable
0
LTYPE
5
14
100
AcDbSymbolTableRecord
100
AcDbLinetypeTableRecord
2
BYBLOCK
70
0
0
LTYPE
5
15
100
AcDbSymbolTableRecord
100
AcDbLinetypeTableRecord
2
BYLAYER
70
0
0
ENDTAB
0
TABLE
2
LAYER
5
2
100
AcDbSymbolTable
70
2
0
LAYER
5
50
100
AcDbSymbolTableRecord
100
AcDbLayerTableRecord
2
0
70
0
6
CONTINUOUS
0
ENDTAB
0
TABLE
2
STYLE
5
3
100
AcDbSymbolTable
70
1
0
STYLE
5
11
100
AcDbSymbolTableRecord
100
AcDbTextStyleTableRecord
2
STANDARD
70
0
0
ENDTAB
0
TABLE
2
VIEW
5
6
100
AcDbSymbolTable
70
0
0
ENDTAB
0
TABLE
2
UCS
5
7
100
AcDbSymbolTable
70
0
0
ENDTAB
0
TABLE
2
APPID
5
9
100
AcDbSymbolTable
70
2
0
APPID
5
12
100
AcDbSymbolTableRecord
100
AcDbRegAppTableRecord
2
ACAD
70
0
0
ENDTAB
0
TABLE
2
DIMSTYLE
5
A
100
AcDbSymbolTable
70
1
0
ENDTAB
0
TABLE
2
BLOCK_RECORD
5
1
100
AcDbSymbolTable
70
1
0
BLOCK_RECORD
5
1F
100
AcDbSymbolTableRecord
100
AcDbBlockTableRecord
2
*MODEL_SPACE
0
BLOCK_RECORD
5
1B
100
AcDbSymbolTableRecord
100
AcDbBlockTableRecord
2
*PAPER_SPACE
0
ENDTAB
0
ENDSEC
0
SECTION
2
BLOCKS
0
BLOCK
5
20
100
AcDbEntity
100
AcDbBlockBegin
2
*MODEL_SPACE
0
ENDBLK
5
21
100
AcDbEntity
100
AcDbBlockEnd
0
BLOCK
5
1C
100
AcDbEntity
100
AcDbBlockBegin
2
*PAPER_SPACE
0
ENDBLK
5
1D
100
AcDbEntity
100
AcDbBlockEnd
0
ENDSEC
0
SECTION
2
ENTITIES
0
LWPOLYLINE
5
100
100
AcDbEntity
8
0
100
AcDbPolyline
90
66
70
1
43
0.0
10
-187.39742761315614
20
-206.93794973574836
10
-187.19961769093811
20
-206.90950896259659
10
-186.99999999999932
20
-206.90000000000001
10
-186.80038230906052
20
-206.90950896259659
10
-186.60257238684241
20
-206.93794973574836
10
-186.40836163063233
20
-206.98506475540955
10
-186.21950884311261
20
-207.05042734066623
10
-186.03772430437172
20
-207.1334455578247
10
-185.8646542833425
20
-207.23336758105447
10
-185.70186612893605
20
-207.34928850104012
10
-185.55083407588685
20
-207.48015851997934
10
-185.41292589385532
20
-207.62479245871489
10
-185.28939050069363
20
-207.78188048990052
10
-185.18134665205201
20
-207.95000000000002
10
-185.08977280975483
20
-208.12762847269607
10
-185.01549828069852
20
-208.31315727703341
10
-184.95919570651989
20
-208.50490623543021
10
-184.92137497204934
20
-208.70113883962608
10
-184.90237858771502
20
-208.90007797677015
10
-184.90237858771502
20
-209.09992202322982
10
-184.92137497204934
20
-209.29886116037395
10
-184.95919570651989
20
-209.49509376456984
10
-185.01549828069852
20
-209.68684272296659
10
-185.08977280975483
20
-209.87237152730398
10
-185.18134665205201
20
-210.05000000000001
10
-185.28939050069363
20
-210.21811951009951
10
-185.41292589385532
20
-210.37520754128511
10
-185.55083407588685
20
-210.51984148002063
10
-185.70186612893605
20
-210.65071149895985
10
-185.8646542833425
20
-210.76663241894551
10
-186.03772430437172
20
-210.86655444217536
10
-186.21950884311261
20
-210.94957265933374
10
-186.40836163063233
20
-211.01493524459045
10
-186.60257238684241
20
-211.0620502642517
10
-186.80038230906052
20
-211.09049103740347
10
-186.99999999999932
20
-211.09999999999999
10
-187.19961769093811
20
-211.09049103740347
10
-187.39742761315614
20
-211.0620502642517
10
-187.59163836936625
20
-211.01493524459045
10
-187.780491156886
20
-210.94957265933374
10
-187.96227569562686
20
-210.86655444217536
10
-188.13534571665605
20
-210.76663241894551
10
-188.29813387106253
20
-210.65071149895985
10
-188.44916592411167
20
-210.51984148002063
10
-188.58707410614326
20
-210.37520754128511
10
-188.71060949930495
20
-210.21811951009951
10
-188.81865334794662
20
-210.05000000000001
10
-188.91022719024375
20
-209.87237152730398
10
-188.98450171930008
20
-209.68684272296659
10
-189.04080429347874
20
-209.49509376456984
10
-189.07862502794924
20
-209.29886116037395
10
-189.09762141228359
20
-209.09992202322982
10
-189.09762141228359
20
-208.90007797677015
10
-189.07862502794924
20
-208.70113883962608
10
-189.04080429347874
20
-208.50490623543021
10
-188.98450171930008
20
-208.31315727703341
10
-188.91022719024375
20
-208.12762847269607
10
-188.81865334794662
20
-207.95000000000002
10
-188.71060949930495
20
-207.78188048990052
10
-188.58707410614326
20
-207.62479245871489
10
-188.44916592411167
20
-207.48015851997934
10
-188.29813387106253
20
-207.34928850104012
10
-188.13534571665605
20
-207.23336758105447
10
-187.96227569562686
20
-207.1334455578247
10
-187.780491156886
20
-207.05042734066623
10
-187.59163836936625
20
-206.98506475540955
0
LWPOLYLINE
5
101
100
AcDbEntity
8
0
100
AcDbPolyline
90
548
70
1
43
0.0
10
203.73121343167199
20
113.04602090672549
10
203.88885953396004
20
113.1629392246051
10
204.05720652634727
20
113.26384252869673
10
204.23463313526901
20
113.34775906502257
10
204.41943064549034
20
113.41388067146441
10
204.60981935596698
20
113.46157056080645
10
204.80396571934008
20
113.4903694533444
10
204.99999999999926
20
113.50000000000001
10
205.19603428065838
20
113.50963054665561
10
205.39018064403152
20
113.53842943919355
10
205.58056935450821
20
113.5861193285356
10
205.76536686472946
20
113.65224093497744
10
205.94279347365119
20
113.73615747130329
10
206.11114046603842
20
113.83706077539493
10
206.2687865683265
20
113.95397909327451
10
206.41421356237231
20
114.08578643762694
10
206.54602090672469
20
114.23121343167274
10
206.66293922460432
20
114.38885953396081
10
206.76384252869599
20
114.55720652634801
10
206.84775906502182
20
114.73463313526983
10
206.91388067146363
20
114.9194306454911
10
206.96157056080574
20
115.10981935596774
10
206.99036945334359
20
115.30396571934089
10
206.99999999999926
20
115.5
10
206.9999999999992
20
134.5
10
206.99036945334359
20
134.69603428065912
10
206.96157056080574
20
134.89018064403226
10
206.91388067146363
20
135.08056935450892
10
206.84775906502182
20
135.26536686473014
10
206.76384252869599
20
135.44279347365199
10
206.66293922460432
20
135.61114046603919
10
206.54602090672469
20
135.76878656832727
10
206.41421356237231
20
135.91421356237308
10
206.26878656832656
20
136.04602090672543
10
206.11114046603845
20
136.16293922460508
10
205.94279347365119
20
136.2638425286967
10
205.76536686472946
20
136.34775906502256
10
205.58056935450821
20
136.4138806714644
10
205.39018064403152
20
136.46157056080648
10
205.19603428065838
20
136.49036945334441
10
204.99999999999926
20
136.5
10
204.80396571934008
20
136.50963054665561
10
204.60981935596698
20
136.53842943919355
10
204.41943064549034
20
136.58611932853555
10
204.23463313526901
20
136.65224093497744
10
204.05720652634727
20
136.7361574713033
10
203.88885953396004
20
136.83706077539492
10
203.73121343167199
20
136.95397909327457
10
203.58578643762613
20
137.08578643762692
10
203.45397909327374
20
137.2312134316727
10
203.33706077539415
20
137.38885953396078
10
203.23615747130253
20
137.55720652634801
10
203.15224093497673
20
137.7346331352698
10
203.08611932853489
20
137.9194306454911
10
203.03842943919281
20
138.10981935596774
10
203.00963054665488
20
138.30396571934088
10
202.99999999999926
20
138.5
10
202.99999999999926
20
224.50000000000003
10
202.96193976625489
20
224.69134171618259
10
202.85355339059251
20
224.85355339059333
10
202.69134171618177
20
224.96193976625563
10
202.49999999999926
20
225
10
113.49999999999957
20
225
10
113.30396571934045
20
225.00963054665561
10
113.10981935596729
20
225.03842943919358
10
112.91943064549062
20
225.08611932853557
10
112.73463313526938
20
225.15224093497747
10
112.55720652634757
20
225.23615747130336
10
112.38885953396036
20
225.33706077539489
10
112.23121343167229
20
225.45397909327454
10
112.08578643762644
20
225.58578643762687
10
111.95397909327409
20
225.73121343167276
10
111.83706077539448
20
225.88885953396084
10
111.73615747130285
20
226.05720652634801
10
111.652240934977
20
226.23463313526986
10
111.58611932853518
20
226.4194306454911
10
111.5384294391931
20
226.60981935596772
10
111.50963054665517
20
226.80396571934085
10
111.49999999999956
20
227.00000000000003
10
111.49036945334394
20
227.19603428065915
10
111.46157056080605
20
227.39018064403226
10
111.41388067146401
20
227.5805693545089
10
111.34775906502216
20
227.76536686473014
10
111.26384252869629
20
227.94279347365202
10
111.1629392246047
20
228.11114046603919
10
111.04602090672506
20
228.26878656832733
10
110.91421356237269
20
228.41421356237308
10
110.76878656832689
20
228.54602090672543
10
110.61114046603882
20
228.66293922460514
10
110.44279347365159
20
228.7638425286967
10
110.26536686472978
20
228.84775906502256
10
110.08056935450853
20
228.91388067146443
10
109.89018064403184
20
228.96157056080642
10
109.69603428065874
20
228.99036945334444
10
109.49999999999957
20
229.00000000000003
10
90.499999999999673
20
229.00000000000003
10
90.303965485870322
20
228.99036943034957
10
90.109818895783192
20
228.96157046927013
10
89.919429971996493
20
228.91388046716202
10
89.734632268301425
20
228.84775870591241
10
89.557205491854688
20
228.76384197574828
10
89.388858363584646
20
228.66293844258445
10
89.231212162235636
20
228.54601986492483
10
89.085785110529798
20
228.41421223527507
10
88.953977753817725
20
228.26878493619307
10
88.837059472028557
20
228.11113851541165
10
88.736156254818582
20
227.9427911977663
10
88.65223985764905
20
227.76536426382495
10
88.58611844322769
20
227.580566436033
10
88.538428798441501
20
227.39017742274211
10
88.509630201736215
20
227.19603077860543
10
88.500000000003197
20
226.99999624640174
10
88.490369798267722
20
226.80396171419815
10
88.461571201562421
20
226.60981507006144
10
88.413881556776261
20
226.41942605677059
10
88.347760142354886
20
226.23462822897858
10
88.263843745185341
20
226.05720129503734
10
88.162940527975366
20
225.8888539773919
10
88.046022246186254
20
225.73120755661049
10
87.914214889474124
20
225.58578025752848
10
87.768787837768286
20
225.45397262787884
10
87.611141636419276
20
225.33705405021919
10
87.442794508149277
20
225.23615051705531
10
87.265367731702511
20
225.15223378689117
10
87.080570028007443
20
225.08611202564154
10
86.890181104220773
20
225.03842202353351
10
86.696034514133643
20
225.00962306245398
10
86.500000000004306
20
224.99999249280364
10
-86.500000000004334
20
224.99999249280361
10
-86.696034514133686
20
225.00962306245398
10
-86.890181104220815
20
225.03842202353343
10
-87.080570028007514
20
225.08611202564151
10
-87.265367731702554
20
225.15223378689114
10
-87.442794508149319
20
225.23615051705525
10
-87.611141636419333
20
225.33705405021919
10
-87.768787837768357
20
225.45397262787876
10
-87.914214889474181
20
225.58578025752843
10
-88.046022246186268
20
225.73120755661049
10
-88.162940527975437
20
225.8888539773919
10
-88.263843745185412
20
226.05720129503726
10
-88.347760142354943
20
226.23462822897849
10
-88.413881556776289
20
226.41942605677053
10
-88.461571201562478
20
226.60981507006144
10
-88.490369798267778
20
226.80396171419815
10
-88.50000000000324
20
226.99999624640171
10
-88.509630201736258
20
227.1960307786054
10
-88.538428798441572
20
227.39017742274211
10
-88.586118443227747
20
227.580566436033
10
-88.652239857649107
20
227.76536426382492
10
-88.736156254818667
20
227.9427911977663
10
-88.837059472028614
20
228.11113851541162
10
-88.953977753817782
20
228.26878493619304
10
-89.085785110529883
20
228.41421223527507
10
-89.231212162235693
20
228.54601986492483
10
-89.388858363584731
20
228.66293844258445
10
-89.557205491854731
20
228.76384197574825
10
-89.734632268301482
20
228.84775870591241
10
-89.919429971996564
20
228.91388046716202
10
-90.109818895783235
20
228.96157046927001
10
-90.303965485870378
20
228.99036943034957
10
-90.499999999999716
20
229.00000000000003
10
-109.49999999999963
20
229.00000000000003
10
-109.69603428065878
20
228.99036945334444
10
-109.8901806440319
20
228.96157056080639
10
-110.08056935450858
20
228.91388067146443
10
-110.26536686472986
20
228.84775906502256
10
-110.44279347365163
20
228.7638425286967
10
-110.61114046603883
20
228.66293922460503
10
-110.76878656832693
20
228.54602090672543
10
-110.91421356237275
20
228.41421356237305
10
-111.04602090672512
20
228.26878656832724
10
-111.16293922460473
20
228.11114046603919
10
-111.26384252869634
20
227.94279347365202
10
-111.3477590650222
20
227.76536686473011
10
-111.41388067146406
20
227.58056935450892
10
-111.46157056080611
20
227.39018064403226
10
-111.49036945334404
20
227.19603428065909
10
-111.49999999999963
20
227.00000000000003
10
-111.50963054665523
20
226.80396571934085
10
-111.53842943919315
20
226.60981935596769
10
-111.58611932853519
20
226.41943064549105
10
-111.65224093497706
20
226.23463313526983
10
-111.73615747130292
20
226.05720652634801
10
-111.83706077539453
20
225.88885953396084
10
-111.95397909327414
20
225.7312134316727
10
-112.08578643762651
20
225.58578643762695
10
-112.2312134316723
20
225.45397909327451
10
-112.38885953396041
20
225.33706077539492
10
-112.55720652634761
20
225.23615747130333
10
-112.73463313526943
20
225.15224093497744
10
-112.91943064549068
20
225.08611932853557
10
-113.10981935596736
20
225.03842943919352
10
-113.30396571934048
20
225.00963054665561
10
-113.4999999999996
20
225
10
-202.49999999999932
20
225
10
-202.69134171618185
20
224.96193976625563
10
-202.85355339059259
20
224.85355339059322
10
-202.96193976625489
20
224.69134171618251
10
-202.99999999999932
20
224.5
10
-202.99999999999926
20
138.49999999999994
10
-203.0096305466549
20
138.30396571934082
10
-203.03842943919281
20
138.10981935596772
10
-203.08611932853492
20
137.91943064549102
10
-203.15224093497673
20
137.73463313526975
10
-203.23615747130259
20
137.55720652634795
10
-203.33706077539418
20
137.38885953396073
10
-203.4539790932738
20
137.23121343167264
10
-203.58578643762615
20
137.08578643762684
10
-203.73121343167199
20
136.95397909327448
10
-203.8888595339601
20
136.83706077539486
10
-204.05720652634727
20
136.73615747130324
10
-204.23463313526909
20
136.65224093497739
10
-204.41943064549037
20
136.58611932853552
10
-204.60981935596698
20
136.53842943919352
10
-204.80396571934017
20
136.50963054665556
10
-204.99999999999929
20
136.49999999999994
10
-205.19603428065841
20
136.4903694533443
10
-205.39018064403152
20
136.46157056080642
10
-205.58056935450821
20
136.41388067146434
10
-205.76536686472946
20
136.3477590650225
10
-205.94279347365128
20
136.26384252869664
10
-206.11114046603848
20
136.16293922460505
10
-206.26878656832659
20
136.0460209067254
10
-206.41421356237237
20
135.91421356237302
10
-206.54602090672469
20
135.76878656832722
10
-206.6629392246044
20
135.61114046603913
10
-206.76384252869599
20
135.44279347365193
10
-206.84775906502185
20
135.26536686473008
10
-206.91388067146369
20
135.0805693545089
10
-206.96157056080574
20
134.8901806440322
10
-206.99036945334365
20
134.69603428065906
10
-206.99999999999929
20
134.49999999999994
10
-206.99999999999929
20
115.49999999999997
10
-206.99036945334365
20
115.30396571934084
10
-206.96157056080574
20
115.10981935596773
10
-206.91388067146369
20
114.91943064549105
10
-206.84775906502185
20
114.73463313526977
10
-206.76384252869599
20
114.55720652634795
10
-206.6629392246044
20
114.38885953396078
10
-206.54602090672469
20
114.23121343167269
10
-206.41421356237237
20
114.08578643762688
10
-206.26878656832656
20
113.9539790932745
10
-206.11114046603845
20
113.83706077539487
10
-205.94279347365128
20
113.73615747130323
10
-205.76536686472946
20
113.65224093497741
10
-205.58056935450821
20
113.58611932853556
10
-205.39018064403152
20
113.53842943919349
10
-205.19603428065841
20
113.50963054665556
10
-204.99999999999929
20
113.49999999999996
10
-204.80396571934017
20
113.49036945334434
10
-204.60981935596698
20
113.46157056080642
10
-204.41943064549037
20
113.41388067146438
10
-204.23463313526909
20
113.34775906502252
10
-204.05720652634727
20
113.2638425286967
10
-203.8888595339601
20
113.16293922460504
10
-203.73121343167199
20
113.04602090672546
10
-203.58578643762615
20
112.91421356237306
10
-203.4539790932738
20
112.76878656832723
10
-203.33706077539418
20
112.61114046603916
10
-203.23615747130259
20
112.44279347365196
10
-203.15224093497673
20
112.26536686473017
10
-203.08611932853492
20
112.0805693545089
10
-203.03842943919281
20
111.89018064403221
10
-203.0096305466549
20
111.69603428065909
10
-202.99999999999926
20
111.49999999999997
10
-202.99999999999926
20
-111.5
10
-203.00963054665488
20
-111.69603428065912
10
-203.03842943919281
20
-111.89018064403228
10
-203.08611932853489
20
-112.08056935450891
10
-203.15224093497673
20
-112.26536686473018
10
-203.23615747130253
20
-112.442793473652
10
-203.33706077539415
20
-112.61114046603922
10
-203.45397909327374
20
-112.76878656832729
10
-203.58578643762613
20
-112.91421356237308
10
-203.73121343167199
20
-113.04602090672549
10
-203.88885953396004
20
-113.1629392246051
10
-204.05720652634727
20
-113.26384252869673
10
-204.23463313526901
20
-113.34775906502257
10
-204.41943064549034
20
-113.41388067146441
10
-204.60981935596698
20
-113.46157056080645
10
-204.80396571934008
20
-113.4903694533444
10
-204.99999999999926
20
-113.50000000000001
10
-205.19603428065838
20
-113.50963054665561
10
-205.39018064403152
20
-113.53842943919355
10
-205.58056935450821
20
-113.5861193285356
10
-205.76536686472946
20
-113.65224093497744
10
-205.94279347365119
20
-113.7361574713033
10
-206.11114046603842
20
-113.83706077539493
10
-206.2687865683265
20
-113.95397909327451
10
-206.41421356237231
20
-114.08578643762694
10
-206.54602090672469
20
-114.23121343167274
10
-206.66293922460432
20
-114.38885953396081
10
-206.76384252869599
20
-114.55720652634801
10
-206.84775906502182
20
-114.73463313526983
10
-206.91388067146363
20
-114.9194306454911
10
-206.96157056080574
20
-115.10981935596774
10
-206.99036945334359
20
-115.30396571934089
10
-206.99999999999926
20
-115.5
10
-206.99999999999926
20
-134.5
10
-206.99036945334359
20
-134.69603428065912
10
-206.96157056080574
20
-134.89018064403226
10
-206.91388067146363
20
-135.08056935450892
10
-206.84775906502182
20
-135.26536686473014
10
-206.76384252869599
20
-135.44279347365199
10
-206.66293922460432
20
-135.61114046603919
10
-206.54602090672469
20
-135.76878656832727
10
-206.41421356237231
20
-135.91421356237308
10
-206.26878656832656
20
-136.04602090672543
10
-206.11114046603845
20
-136.16293922460508
10
-205.94279347365119
20
-136.2638425286967
10
-205.76536686472946
20
-136.34775906502256
10
-205.58056935450821
20
-136.4138806714644
10
-205.39018064403152
20
-136.46157056080648
10
-205.19603428065838
20
-136.49036945334441
10
-204.99999999999926
20
-136.5
10
-204.80396571934008
20
-136.50963054665561
10
-204.60981935596698
20
-136.53842943919355
10
-204.41943064549034
20
-136.58611932853555
10
-204.23463313526901
20
-136.65224093497744
10
-204.05720652634727
20
-136.7361574713033
10
-203.88885953396004
20
-136.83706077539492
10
-203.73121343167199
20
-136.95397909327457
10
-203.58578643762613
20
-137.08578643762692
10
-203.45397909327374
20
-137.2312134316727
10
-203.33706077539415
20
-137.38885953396078
10
-203.23615747130253
20
-137.55720652634801
10
-203.15224093497673
20
-137.73463313526986
10
-203.08611932853489
20
-137.9194306454911
10
-203.03842943919281
20
-138.10981935596774
10
-203.00963054665488
20
-138.30396571934088
10
-202.99999999999926
20
-138.5
10
-202.99999999999926
20
-224.50000000000003
10
-202.96193976625489
20
-224.69134171618259
10
-202.85355339059251
20
-224.85355339059333
10
-202.69134171618177
20
-224.96193976625563
10
-202.49999999999926
20
-225
10
-113.49999999999957
20
-225
10
-113.30396571934045
20
-225.00963054665561
10
-113.10981935596729
20
-225.03842943919358
10
-112.91943064549062
20
-225.08611932853557
10
-112.73463313526938
20
-225.15224093497747
10
-112.55720652634757
20
-225.23615747130336
10
-112.38885953396036
20
-225.33706077539489
10
-112.23121343167229
20
-225.45397909327454
10
-112.08578643762644
20
-225.58578643762687
10
-111.95397909327409
20
-225.73121343167276
10
-111.83706077539448
20
-225.88885953396084
10
-111.73615747130285
20
-226.05720652634801
10
-111.652240934977
20
-226.23463313526986
10
-111.58611932853518
20
-226.4194306454911
10
-111.5384294391931
20
-226.60981935596772
10
-111.50963054665517
20
-226.80396571934085
10
-111.49999999999956
20
-227.00000000000003
10
-111.49036945334394
20
-227.19603428065915
10
-111.46157056080605
20
-227.39018064403226
10
-111.41388067146401
20
-227.5805693545089
10
-111.34775906502216
20
-227.76536686473014
10
-111.26384252869629
20
-227.94279347365202
10
-111.1629392246047
20
-228.11114046603919
10
-111.04602090672506
20
-228.26878656832733
10
-110.91421356237269
20
-228.41421356237308
10
-110.76878656832689
20
-228.54602090672543
10
-110.61114046603882
20
-228.66293922460514
10
-110.44279347365159
20
-228.7638425286967
10
-110.26536686472978
20
-228.84775906502256
10
-110.08056935450853
20
-228.91388067146443
10
-109.89018064403184
20
-228.96157056080642
10
-109.69603428065874
20
-228.99036945334444
10
-109.49999999999957
20
-229.00000000000003
10
-90.499999999999702
20
-229.00000000000003
10
-90.303965485870322
20
-228.99036943034957
10
-90.109818895783192
20
-228.96157046927013
10
-89.919429971996493
20
-228.91388046716202
10
-89.734632268301425
20
-228.84775870591241
10
-89.557205491854702
20
-228.76384197574828
10
-89.388858363584646
20
-228.66293844258445
10
-89.231212162235636
20
-228.54601986492483
10
-89.085785110529798
20
-228.41421223527507
10
-88.953977753817725
20
-228.26878493619307
10
-88.837059472028557
20
-228.11113851541165
10
-88.736156254818582
20
-227.9427911977663
10
-88.65223985764905
20
-227.76536426382495
10
-88.58611844322769
20
-227.580566436033
10
-88.538428798441501
20
-227.39017742274211
10
-88.509630201736215
20
-227.19603077860543
10
-88.500000000003197
20
-226.99999624640174
10
-88.490369798267722
20
-226.80396171419815
10
-88.461571201562421
20
-226.60981507006144
10
-88.413881556776261
20
-226.41942605677059
10
-88.347760142354929
20
-226.23462822897858
10
-88.263843745185341
20
-226.05720129503734
10
-88.162940527975366
20
-225.8888539773919
10
-88.046022246186254
20
-225.73120755661049
10
-87.914214889474124
20
-225.58578025752848
10
-87.768787837768286
20
-225.45397262787884
10
-87.611141636419276
20
-225.33705405021919
10
-87.442794508149277
20
-225.23615051705531
10
-87.265367731702511
20
-225.15223378689117
10
-87.080570028007443
20
-225.08611202564154
10
-86.890181104220773
20
-225.03842202353351
10
-86.696034514133643
20
-225.00962306245398
10
-86.500000000004292
20
-224.99999249280364
10
86.500000000004292
20
-224.99999249280364
10
86.696034514133643
20
-225.00962306245398
10
86.890181104220773
20
-225.03842202353351
10
87.080570028007443
20
-225.08611202564154
10
87.265367731702511
20
-225.15223378689117
10
87.442794508149277
20
-225.23615051705531
10
87.611141636419276
20
-225.33705405021919
10
87.768787837768286
20
-225.45397262787884
10
87.914214889474124
20
-225.58578025752848
10
88.046022246186254
20
-225.73120755661049
10
88.162940527975366
20
-225.8888539773919
10
88.263843745185341
20
-226.05720129503734
10
88.347760142354886
20
-226.23462822897858
10
88.413881556776261
20
-226.41942605677059
10
88.461571201562421
20
-226.60981507006144
10
88.490369798267722
20
-226.80396171419815
10
88.500000000000739
20
-226.99999624640174
10
88.509630201736215
20
-227.19603077860543
10
88.538428798441501
20
-227.39017742274211
10
88.58611844322769
20
-227.580566436033
10
88.65223985764905
20
-227.76536426382495
10
88.736156254818582
20
-227.9427911977663
10
88.837059472028557
20
-228.11113851541165
10
88.953977753817725
20
-228.26878493619307
10
89.085785110529798
20
-228.41421223527507
10
89.231212162235636
20
-228.54601986492483
10
89.388858363584646
20
-228.66293844258445
10
89.557205491854688
20
-228.76384197574828
10
89.734632268301425
20
-228.84775870591241
10
89.919429971996493
20
-228.91388046716202
10
90.109818895783192
20
-228.96157046927013
10
90.303965485870322
20
-228.99036943034957
10
90.499999999999673
20
-229.00000000000003
10
109.49999999999957
20
-229.00000000000003
10
109.69603428065874
20
-228.99036945334444
10
109.89018064403184
20
-228.96157056080642
10
110.08056935450853
20
-228.91388067146443
10
110.26536686472978
20
-228.84775906502256
10
110.44279347365159
20
-228.7638425286967
10
110.61114046603882
20
-228.66293922460514
10
110.76878656832689
20
-228.54602090672543
10
110.91421356237269
20
-228.41421356237308
10
111.04602090672506
20
-228.26878656832733
10
111.1629392246047
20
-228.11114046603919
10
111.26384252869629
20
-227.94279347365202
10
111.34775906502216
20
-227.76536686473014
10
111.41388067146401
20
-227.5805693545089
10
111.46157056080605
20
-227.39018064403226
10
111.49036945334394
20
-227.19603428065915
10
111.49999999999956
20
-227.00000000000003
10
111.50963054665517
20
-226.80396571934085
10
111.5384294391931
20
-226.60981935596772
10
111.58611932853518
20
-226.4194306454911
10
111.652240934977
20
-226.23463313526986
10
111.73615747130285
20
-226.05720652634801
10
111.83706077539448
20
-225.88885953396084
10
111.95397909327409
20
-225.73121343167276
10
112.08578643762644
20
-225.58578643762687
10
112.23121343167229
20
-225.45397909327454
10
112.38885953396036
20
-225.33706077539489
10
112.55720652634757
20
-225.23615747130336
10
112.73463313526938
20
-225.15224093497747
10
112.91943064549062
20
-225.08611932853557
10
113.10981935596729
20
-225.03842943919358
10
113.30396571934045
20
-225.00963054665561
10
113.49999999999957
20
-225
10
202.49999999999926
20
-225
10
202.69134171618177
20
-224.96193976625563
10
202.85355339059251
20
-224.85355339059333
10
202.96193976625489
20
-224.69134171618259
10
202.99999999999926
20
-224.50000000000003
10
202.99999999999926
20
-138.5
10
203.00963054665488
20
-138.30396571934088
10
203.03842943919281
20
-138.10981935596774
10
203.08611932853489
20
-137.9194306454911
10
203.15224093497673
20
-137.7346331352698
10
203.23615747130253
20
-137.55720652634801
10
203.33706077539415
20
-137.38885953396078
10
203.45397909327374
20
-137.2312134316727
10
203.58578643762613
20
-137.08578643762692
10
203.73121343167199
20
-136.95397909327457
10
203.88885953396004
20
-136.83706077539492
10
204.05720652634727
20
-136.7361574713033
10
204.23463313526901
20
-136.65224093497744
10
204.41943064549034
20
-136.58611932853555
10
204.60981935596698
20
-136.53842943919355
10
204.80396571934008
20
-136.50963054665561
10
204.99999999999926
20
-136.5
10
205.19603428065838
20
-136.49036945334441
10
205.39018064403152
20
-136.46157056080648
10
205.58056935450821
20
-136.4138806714644
10
205.76536686472946
20
-136.34775906502256
10
205.94279347365119
20
-136.2638425286967
10
206.11114046603845
20
-136.16293922460508
10
206.26878656832656
20
-136.04602090672543
10
206.41421356237231
20
-135.91421356237308
10
206.54602090672469
20
-135.76878656832727
10
206.66293922460432
20
-135.61114046603919
10
206.76384252869599
20
-135.44279347365199
10
206.84775906502182
20
-135.26536686473014
10
206.91388067146363
20
-135.08056935450892
10
206.96157056080574
20
-134.89018064403226
10
206.99036945334359
20
-134.69603428065912
10
206.99999999999926
20
-134.5
10
206.99999999999926
20
-115.5
10
206.99036945334359
20
-115.30396571934089
10
206.96157056080574
20
-115.10981935596774
10
206.91388067146363
20
-114.9194306454911
10
206.84775906502182
20
-114.73463313526983
10
206.76384252869599
20
-114.55720652634801
10
206.66293922460432
20
-114.38885953396081
10
206.54602090672469
20
-114.23121343167274
10
206.41421356237231
20
-114.08578643762694
10
206.2687865683265
20
-113.95397909327451
10
206.11114046603842
20
-113.83706077539493
10
205.94279347365119
20
-113.73615747130329
10
205.76536686472946
20
-113.65224093497744
10
205.58056935450821
20
-113.5861193285356
10
205.39018064403152
20
-113.53842943919355
10
205.19603428065838
20
-113.50963054665561
10
204.99999999999926
20
-113.50000000000001
10
204.80396571934008
20
-113.4903694533444
10
204.60981935596698
20
-113.46157056080645
10
204.41943064549034
20
-113.41388067146441
10
204.23463313526901
20
-113.34775906502257
10
204.05720652634727
20
-113.26384252869673
10
203.88885953396004
20
-113.1629392246051
10
203.73121343167199
20
-113.04602090672549
10
203.58578643762613
20
-112.91421356237308
10
203.45397909327374
20
-112.76878656832729
10
203.33706077539415
20
-112.61114046603922
10
203.23615747130253
20
-112.442793473652
10
203.15224093497673
20
-112.26536686473018
10
203.08611932853489
20
-112.08056935450891
10
203.03842943919281
20
-111.89018064403228
10
203.00963054665488
20
-111.69603428065912
10
202.99999999999926
20
-111.5
10
202.99999999999926
20
111.5
10
203.00963054665488
20
111.69603428065912
10
203.03842943919281
20
111.89018064403228
10
203.08611932853489
20
112.08056935450891
10
203.15224093497673
20
112.26536686473018
10
203.23615747130253
20
112.442793473652
10
203.33706077539415
20
112.61114046603922
10
203.45397909327374
20
112.76878656832729
10
203.58578643762613
20
112.91421356237308
0
LWPOLYLINE
5
102
100
AcDbEntity
8
0
100
AcDbPolyline
90
4
70
1
43
0.0
10
-199.9999999999992
20
-117.39999999999986
10
-202.99999999999923
20
-117.39999999999986
10
-202.99999999999923
20
-132.59999999999985
10
-199.9999999999992
20
-132.59999999999985
0
LWPOLYLINE
5
103
100
AcDbEntity
8
0
100
AcDbPolyline
90
66
70
1
43
0.0
10
-0.39742761315686015
20
-211.0620502642517
10
-0.59163836936699954
20
-211.01493524459045
10
-0.78049115688668458
20
-210.94957265933374
10
-0.96227569562755799
20
-210.86655444217536
10
-1.1353457166567509
20
-210.76663241894551
10
-1.2981338710632662
20
-210.65071149895985
10
-1.4491659241124295
20
-210.51984148002063
10
-1.5870741061439364
20
-210.37520754128511
10
-1.7106094993056986
20
-210.21811951009951
10
-1.8186533479473144
20
-210.05000000000001
10
-1.9102271902444818
20
-209.87237152730398
10
-1.9845017193007961
20
-209.68684272296659
10
-2.0408042934794302
20
-209.49509376456984
10
-2.078625027949951
20
-209.29886116037395
10
-2.0976214122843087
20
-209.09992202322982
10
-2.0976214122843087
20
-208.90007797677015
10
-2.078625027949951
20
-208.70113883962608
10
-2.0408042934794302
20
-208.50490623543021
10
-1.984501719300797
20
-208.31315727703341
10
-1.9102271902444818
20
-208.12762847269607
10
-1.8186533479473153
20
-207.95000000000002
10
-1.7106094993056988
20
-207.78188048990052
10
-1.5870741061439364
20
-207.62479245871489
10
-1.4491659241124297
20
-207.48015851997934
10
-1.2981338710632671
20
-207.34928850104012
10
-1.1353457166567504
20
-207.23336758105447
10
-0.96227569562755888
20
-207.1334455578247
10
-0.78049115688668591
20
-207.05042734066623
10
-0.59163836936700032
20
-206.98506475540955
10
-0.39742761315686082
20
-206.93794973574836
10
-0.19961769093878448
20
-206.90950896259659
10
-5.2041704279304213e-16
20
-206.90000000000001
10
0.19961769093878345
20
-206.90950896259659
10
0.39742761315685798
20
-206.93794973574836
10
0.59163836936699932
20
-206.98506475540955
10
0.78049115688668513
20
-207.05042734066623
10
0.96227569562755788
20
-207.1334455578247
10
1.13534571665675
20
-207.23336758105447
10
1.2981338710632659
20
-207.34928850104012
10
1.4491659241124291
20
-207.48015851997934
10
1.5870741061439353
20
-207.62479245871489
10
1.7106094993056986
20
-207.78188048990052
10
1.8186533479473139
20
-207.95000000000002
10
1.9102271902444812
20
-208.12762847269607
10
1.9845017193007961
20
-208.31315727703341
10
2.0408042934794297
20
-208.50490623543021
10
2.078625027949951
20
-208.70113883962608
10
2.0976214122843087
20
-208.90007797677015
10
2.0976214122843087
20
-209.09992202322982
10
2.078625027949951
20
-209.29886116037395
10
2.0408042934794302
20
-209.49509376456984
10
1.984501719300797
20
-209.68684272296659
10
1.910227190244481
20
-209.87237152730398
10
1.8186533479473157
20
-210.05000000000001
10
1.7106094993056988
20
-210.21811951009951
10
1.5870741061439386
20
-210.37520754128511
10
1.4491659241124317
20
-210.51984148002063
10
1.2981338710632671
20
-210.65071149895985
10
1.1353457166567509
20
-210.76663241894551
10
0.96227569562755733
20
-210.86655444217536
10
0.78049115688668624
20
-210.94957265933374
10
0.59163836936700054
20
-211.01493524459045
10
0.39742761315686298
20
-211.0620502642517
10
0.19961769093878479
20
-211.09049103740347
10
2.5717582782094326e-16
20
-211.09999999999999
10
-0.19961769093878282
20
-211.09049103740347
0
LWPOLYLINE
5
104
100
AcDbEntity
8
0
100
AcDbPolyline
90
4
70
1
43
0.0
10
107.59999999999964
20
-221.99999835953844
10
92.399999999999693
20
-221.99999835953844
10
92.399999999999693
20
-224.99999835953844
10
107.59999999999964
20
-224.99999835953844
0
LWPOLYLINE
5
105
100
AcDbEntity
8
0
100
AcDbPolyline
90
4
70
1
43
0.0
10
-107.59999999999964
20
-224.99999835953844
10
-107.59999999999964
20
-221.99999835953844
10
-92.399999999999693
20
-221.99999835953844
10
-92.399999999999693
20
-224.99999835953844
0
LWPOLYLINE
5
106
100
AcDbEntity
8
0
100
AcDbPolyline
90
66
70
1
43
0.0
10
189.07862502794924
20
208.70113883962608
10
189.04080429347874
20
208.50490623543021
10
188.98450171930008
20
208.31315727703341
10
188.91022719024375
20
208.12762847269607
10
188.81865334794662
20
207.95000000000002
10
188.71060949930495
20
207.78188048990052
10
188.58707410614326
20
207.62479245871489
10
188.44916592411167
20
207.48015851997934
10
188.29813387106253
20
207.34928850104012
10
188.13534571665605
20
207.23336758105447
10
187.96227569562686
20
207.1334455578247
10
187.780491156886
20
207.05042734066623
10
187.59163836936625
20
206.98506475540955
10
187.39742761315614
20
206.93794973574836
10
187.19961769093811
20
206.90950896259659
10
186.99999999999932
20
206.90000000000001
10
186.80038230906052
20
206.90950896259659
10
186.60257238684241
20
206.93794973574836
10
186.40836163063233
20
206.98506475540955
10
186.21950884311261
20
207.05042734066623
10
186.03772430437172
20
207.1334455578247
10
185.8646542833425
20
207.23336758105447
10
185.70186612893605
20
207.34928850104012
10
185.55083407588685
20
207.48015851997934
10
185.41292589385532
20
207.62479245871489
10
185.28939050069363
20
207.78188048990052
10
185.18134665205201
20
207.95000000000002
10
185.08977280975483
20
208.12762847269607
10
185.01549828069852
20
208.31315727703341
10
184.95919570651989
20
208.50490623543021
10
184.92137497204934
20
208.70113883962608
10
184.90237858771502
20
208.90007797677015
10
184.90237858771502
20
209.09992202322982
10
184.92137497204934
20
209.29886116037395
10
184.95919570651989
20
209.49509376456984
10
185.01549828069852
20
209.68684272296659
10
185.08977280975483
20
209.87237152730398
10
185.18134665205201
20
210.05000000000001
10
185.28939050069363
20
210.21811951009951
10
185.41292589385532
20
210.37520754128511
10
185.55083407588685
20
210.51984148002063
10
185.70186612893605
20
210.65071149895985
10
185.8646542833425
20
210.76663241894551
10
186.03772430437172
20
210.86655444217536
10
186.21950884311261
20
210.94957265933374
10
186.40836163063233
20
211.01493524459045
10
186.60257238684241
20
211.0620502642517
10
186.80038230906052
20
211.09049103740347
10
186.99999999999932
20
211.09999999999999
10
187.19961769093811
20
211.09049103740347
10
187.39742761315614
20
211.0620502642517
10
187.59163836936625
20
211.01493524459045
10
187.780491156886
20
210.94957265933374
10
187.96227569562686
20
210.86655444217536
10
188.13534571665605
20
210.76663241894551
10
188.29813387106253
20
210.65071149895985
10
188.44916592411167
20
210.51984148002063
10
188.58707410614326
20
210.37520754128511
10
188.71060949930495
20
210.21811951009951
10
188.81865334794662
20
210.05000000000001
10
188.91022719024375
20
209.87237152730398
10
188.98450171930008
20
209.68684272296659
10
189.04080429347874
20
209.49509376456984
10
189.07862502794924
20
209.29886116037395
10
189.09762141228359
20
209.09992202322982
10
189.09762141228359
20
208.90007797677015
0
LWPOLYLINE
5
107
100
AcDbEntity
8
0
100
AcDbPolyline
90
66
70
1
43
0.0
10
-1.8186533479473144
20
207.95000000000002
10
-1.9102271902444818
20
208.12762847269607
10
-1.9845017193007961
20
208.31315727703341
10
-2.0408042934794302
20
208.50490623543021
10
-2.078625027949951
20
208.70113883962608
10
-2.0976214122843087
20
208.90007797677015
10
-2.0976214122843087
20
209.09992202322982
10
-2.078625027949951
20
209.29886116037395
10
-2.0408042934794302
20
209.49509376456984
10
-1.984501719300797
20
209.68684272296659
10
-1.9102271902444818
20
209.87237152730398
10
-1.8186533479473153
20
210.05000000000001
10
-1.7106094993056988
20
210.21811951009951
10
-1.5870741061439364
20
210.37520754128511
10
-1.4491659241124297
20
210.51984148002063
10
-1.2981338710632671
20
210.65071149895985
10
-1.1353457166567504
20
210.76663241894551
10
-0.96227569562755888
20
210.86655444217536
10
-0.78049115688668591
20
210.94957265933374
10
-0.59163836936700032
20
211.01493524459045
10
-0.39742761315686082
20
211.0620502642517
10
-0.19961769093878448
20
211.09049103740347
10
-5.2041704279304213e-16
20
211.09999999999999
10
0.19961769093878345
20
211.09049103740347
10
0.39742761315685798
20
211.0620502642517
10
0.59163836936699932
20
211.01493524459045
10
0.78049115688668513
20
210.94957265933374
10
0.96227569562755788
20
210.86655444217536
10
1.13534571665675
20
210.76663241894551
10
1.2981338710632659
20
210.65071149895985
10
1.4491659241124291
20
210.51984148002063
10
1.5870741061439353
20
210.37520754128511
10
1.7106094993056986
20
210.21811951009951
10
1.8186533479473139
20
210.05000000000001
10
1.9102271902444812
20
209.87237152730398
10
1.9845017193007961
20
209.68684272296659
10
2.0408042934794297
20
209.49509376456984
10
2.078625027949951
20
209.29886116037395
10
2.0976214122843087
20
209.09992202322982
10
2.0976214122843087
20
208.90007797677015
10
2.078625027949951
20
208.70113883962608
10
2.0408042934794302
20
208.50490623543021
10
1.984501719300797
20
208.31315727703341
10
1.910227190244481
20
208.12762847269607
10
1.8186533479473157
20
207.95000000000002
10
1.7106094993056988
20
207.78188048990052
10
1.5870741061439386
20
207.62479245871489
10
1.4491659241124317
20
207.48015851997934
10
1.2981338710632671
20
207.34928850104012
10
1.1353457166567509
20
207.23336758105447
10
0.96227569562755733
20
207.1334455578247
10
0.78049115688668624
20
207.05042734066623
10
0.59163836936700054
20
206.98506475540955
10
0.39742761315686298
20
206.93794973574836
10
0.19961769093878479
20
206.90950896259659
10
7.6327832942979512e-16
20
206.90000000000001
10
-0.19961769093878282
20
206.90950896259659
10
-0.39742761315686015
20
206.93794973574836
10
-0.59163836936699954
20
206.98506475540955
10
-0.78049115688668458
20
207.05042734066623
10
-0.96227569562755799
20
207.1334455578247
10
-1.1353457166567509
20
207.23336758105447
10
-1.2981338710632662
20
207.34928850104012
10
-1.4491659241124295
20
207.48015851997934
10
-1.5870741061439364
20
207.62479245871489
10
-1.7106094993056986
20
207.78188048990052
0
LWPOLYLINE
5
108
100
AcDbEntity
8
0
100
AcDbPolyline
90
4
70
1
43
0.0
10
202.99999999999923
20
117.39999999999986
10
202.99999999999923
20
132.59999999999985
10
199.9999999999992
20
132.59999999999985
10
199.9999999999992
20
117.39999999999986
0
LWPOLYLINE
5
109
100
AcDbEntity
8
0
100
AcDbPolyline
90
66
70
1
43
0.0
10
189.09762141228359
20
-209.09992202322982
10
189.09762141228359
20
-208.90007797677015
10
189.07862502794924
20
-208.70113883962608
10
189.04080429347874
20
-208.50490623543021
10
188.98450171930008
20
-208.31315727703341
10
188.91022719024375
20
-208.12762847269607
10
188.81865334794662
20
-207.95000000000002
10
188.71060949930495
20
-207.78188048990052
10
188.58707410614326
20
-207.62479245871489
10
188.44916592411167
20
-207.48015851997934
10
188.29813387106253
20
-207.34928850104012
10
188.13534571665605
20
-207.23336758105447
10
187.96227569562686
20
-207.1334455578247
10
187.780491156886
20
-207.05042734066623
10
187.59163836936625
20
-206.98506475540955
10
187.39742761315614
20
-206.93794973574836
10
187.19961769093811
20
-206.90950896259659
10
186.99999999999932
20
-206.90000000000001
10
186.80038230906052
20
-206.90950896259659
10
186.60257238684241
20
-206.93794973574836
10
186.40836163063233
20
-206.98506475540955
10
186.21950884311261
20
-207.05042734066623
10
186.03772430437172
20
-207.1334455578247
10
185.8646542833425
20
-207.23336758105447
10
185.70186612893605
20
-207.34928850104012
10
185.55083407588685
20
-207.48015851997934
10
185.41292589385532
20
-207.62479245871489
10
185.28939050069363
20
-207.78188048990052
10
185.18134665205201
20
-207.95000000000002
10
185.08977280975483
20
-208.12762847269607
10
185.01549828069852
20
-208.31315727703341
10
184.95919570651989
20
-208.50490623543021
10
184.92137497204934
20
-208.70113883962608
10
184.90237858771502
20
-208.90007797677015
10
184.90237858771502
20
-209.09992202322982
10
184.92137497204934
20
-209.29886116037395
10
184.95919570651989
20
-209.49509376456984
10
185.01549828069852
20
-209.68684272296659
10
185.08977280975483
20
-209.87237152730398
10
185.18134665205201
20
-210.05000000000001
10
185.28939050069363
20
-210.21811951009951
10
185.41292589385532
20
-210.37520754128511
10
185.55083407588685
20
-210.51984148002063
10
185.70186612893605
20
-210.65071149895985
10
185.8646542833425
20
-210.76663241894551
10
186.03772430437172
20
-210.86655444217536
10
186.21950884311261
20
-210.94957265933374
10
186.40836163063233
20
-211.01493524459045
10
186.60257238684241
20
-211.0620502642517
10
186.80038230906052
20
-211.09049103740347
10
186.99999999999932
20
-211.09999999999999
10
187.19961769093811
20
-211.09049103740347
10
187.39742761315614
20
-211.0620502642517
10
187.59163836936625
20
-211.01493524459045
10
187.780491156886
20
-210.94957265933374
10
187.96227569562686
20
-210.86655444217536
10
188.13534571665605
20
-210.76663241894551
10
188.29813387106253
20
-210.65071149895985
10
188.44916592411167
20
-210.51984148002063
10
188.58707410614326
20
-210.37520754128511
10
188.71060949930495
20
-210.21811951009951
10
188.81865334794662
20
-210.05000000000001
10
188.91022719024375
20
-209.87237152730398
10
188.98450171930008
20
-209.68684272296659
10
189.04080429347874
20
-209.49509376456984
10
189.07862502794924
20
-209.29886116037395
0
LWPOLYLINE
5
110
100
AcDbEntity
8
0
100
AcDbPolyline
90
4
70
1
43
0.0
10
202.99999999999923
20
-132.59999999999985
10
199.9999999999992
20
-132.59999999999985
10
199.9999999999992
20
-117.39999999999986
10
202.99999999999923
20
-117.39999999999986
0
LWPOLYLINE
5
111
100
AcDbEntity
8
0
100
AcDbPolyline
90
66
70
1
43
0.0
10
-188.13534571665605
20
-1.7666324189454807
10
-188.29813387106253
20
-1.6507114989598537
10
-188.44916592411167
20
-1.5198414800206477
10
-188.58707410614326
20
-1.3752075412850993
10
-188.71060949930495
20
-1.2181195100995164
10
-188.81865334794662
20
-1.0500000000000009
10
-188.91022719024375
20
-0.87237152730396139
10
-188.98450171930008
20
-0.68684272296658622
10
-189.04080429347874
20
-0.4950937645697967
10
-189.07862502794924
20
-0.29886116037389898
10
-189.09762141228359
20
-0.099922023229859769
10
-189.09762141228359
20
0.099922023229859006
10
-189.07862502794924
20
0.2988611603738982
10
-189.04080429347874
20
0.49509376456979592
10
-188.98450171930008
20
0.68684272296658533
10
-188.91022719024375
20
0.87237152730396073
10
-188.81865334794662
20
1.0499999999999987
10
-188.71060949930495
20
1.2181195100995157
10
-188.58707410614326
20
1.3752075412850993
10
-188.44916592411167
20
1.5198414800206472
10
-188.29813387106253
20
1.6507114989598533
10
-188.13534571665605
20
1.7666324189454807
10
-187.96227569562686
20
1.8665544421753391
10
-187.780491156886
20
1.9495726593337523
10
-187.59163836936625
20
2.0149352445904447
10
-187.39742761315614
20
2.0620502642516838
10
-187.19961769093811
20
2.0904910374034773
10
-186.99999999999932
20
2.1000000000000001
10
-186.80038230906052
20
2.0904910374034777
10
-186.60257238684241
20
2.0620502642516847
10
-186.40836163063233
20
2.0149352445904447
10
-186.21950884311261
20
1.9495726593337528
10
-186.03772430437172
20
1.8665544421753399
10
-185.8646542833425
20
1.7666324189454816
10
-185.70186612893605
20
1.6507114989598539
10
-185.55083407588685
20
1.5198414800206483
10
-185.41292589385532
20
1.3752075412850999
10
-185.28939050069363
20
1.2181195100995166
10
-185.18134665205201
20
1.0500000000000009
10
-185.08977280975483
20
0.87237152730396172
10
-185.01549828069852
20
0.68684272296658622
10
-184.95919570651989
20
0.4950937645697987
10
-184.92137497204934
20
0.29886116037389931
10
-184.90237858771502
20
0.099922023229860046
10
-184.90237858771502
20
-0.099922023229858728
10
-184.92137497204934
20
-0.29886116037389798
10
-184.95919570651989
20
-0.4950937645697957
10
-185.01549828069852
20
-0.68684272296658511
10
-185.08977280975483
20
-0.87237152730396228
10
-185.18134665205201
20
-1.0499999999999985
10
-185.28939050069363
20
-1.2181195100995157
10
-185.41292589385532
20
-1.3752075412850959
10
-185.55083407588685
20
-1.5198414800206461
10
-185.70186612893605
20
-1.6507114989598533
10
-185.8646542833425
20
-1.7666324189454807
10
-186.03772430437172
20
-1.8665544421753402
10
-186.21950884311261
20
-1.9495726593337523
10
-186.40836163063233
20
-2.0149352445904447
10
-186.60257238684241
20
-2.0620502642516838
10
-186.80038230906052
20
-2.0904910374034773
10
-186.99999999999932
20
-2.1000000000000001
10
-187.19961769093811
20
-2.0904910374034777
10
-187.39742761315614
20
-2.0620502642516843
10
-187.59163836936625
20
-2.0149352445904447
10
-187.780491156886
20
-1.9495726593337528
10
-187.96227569562686
20
-1.8665544421753397
0
LWPOLYLINE
5
112
100
AcDbEntity
8
0
100
AcDbPolyline
90
4
70
1
43
0.0
10
-202.99999999999926
20
132.5999999999998
10
-199.99999999999926
20
132.5999999999998
10
-199.99999999999926
20
117.39999999999981
10
-202.99999999999926
20
117.39999999999981
0
LWPOLYLINE
5
113
100
AcDbEntity
8
0
100
AcDbPolyline
90
66
70
1
43
0.0
10
-187.78049115688603
20
210.94957265933371
10
-187.96227569562686
20
210.86655444217536
10
-188.1353457166561
20
210.76663241894545
10
-188.29813387106265
20
210.65071149895985
10
-188.44916592411178
20
210.51984148002063
10
-188.58707410614329
20
210.37520754128511
10
-188.71060949930506
20
210.21811951009951
10
-188.81865334794665
20
210.05000000000001
10
-188.91022719024386
20
209.87237152730398
10
-188.98450171930011
20
209.68684272296659
10
-189.04080429347883
20
209.49509376456973
10
-189.0786250279493
20
209.29886116037383
10
-189.09762141228367
20
209.09992202322982
10
-189.09762141228367
20
208.90007797677012
10
-189.0786250279493
20
208.70113883962608
10
-189.04080429347883
20
208.50490623543016
10
-188.98450171930011
20
208.31315727703341
10
-188.91022719024386
20
208.12762847269599
10
-188.81865334794665
20
207.95000000000002
10
-188.71060949930506
20
207.78188048990049
10
-188.58707410614329
20
207.62479245871489
10
-188.44916592411178
20
207.48015851997934
10
-188.29813387106265
20
207.34928850104009
10
-188.1353457166561
20
207.23336758105449
10
-187.96227569562686
20
207.13344555782467
10
-187.78049115688603
20
207.05042734066623
10
-187.59163836936636
20
206.98506475540955
10
-187.39742761315622
20
206.9379497357483
10
-187.19961769093811
20
206.9095089625965
10
-186.99999999999932
20
206.90000000000001
10
-186.80038230906052
20
206.9095089625965
10
-186.6025723868425
20
206.9379497357483
10
-186.40836163063241
20
206.98506475540955
10
-186.21950884311264
20
207.05042734066623
10
-186.03772430437175
20
207.13344555782467
10
-185.86465428334262
20
207.23336758105449
10
-185.70186612893608
20
207.34928850104009
10
-185.55083407588694
20
207.48015851997934
10
-185.4129258938554
20
207.62479245871489
10
-185.28939050069371
20
207.78188048990049
10
-185.18134665205207
20
207.95000000000002
10
-185.08977280975486
20
208.12762847269599
10
-185.01549828069855
20
208.31315727703341
10
-184.95919570651989
20
208.50490623543016
10
-184.92137497204942
20
208.70113883962608
10
-184.90237858771505
20
208.90007797677012
10
-184.90237858771505
20
209.09992202322982
10
-184.92137497204942
20
209.29886116037383
10
-184.95919570651989
20
209.49509376456973
10
-185.01549828069855
20
209.68684272296659
10
-185.08977280975486
20
209.87237152730398
10
-185.18134665205207
20
210.05000000000001
10
-185.28939050069371
20
210.21811951009951
10
-185.4129258938554
20
210.37520754128511
10
-185.55083407588694
20
210.51984148002063
10
-185.70186612893608
20
210.65071149895985
10
-185.86465428334262
20
210.76663241894545
10
-186.03772430437175
20
210.86655444217536
10
-186.21950884311264
20
210.94957265933371
10
-186.40836163063241
20
211.01493524459045
10
-186.6025723868425
20
211.0620502642517
10
-186.80038230906052
20
211.09049103740347
10
-186.99999999999932
20
211.09999999999999
10
-187.19961769093811
20
211.09049103740347
10
-187.39742761315622
20
211.0620502642517
10
-187.59163836936636
20
211.01493524459045
0
LWPOLYLINE
5
114
100
AcDbEntity
8
0
100
AcDbPolyline
90
4
70
1
43
0.0
10
-107.5999999999997
20
221.99999835953844
10
-92.399999999999736
20
221.99999835953844
10
-92.399999999999778
20
224.99999835953844
10
-107.5999999999997
20
224.99999835953844
0
LWPOLYLINE
5
115
100
AcDbEntity
8
0
100
AcDbPolyline
90
66
70
1
43
0.0
10
185.55083407588685
20
-1.5198414800206477
10
185.41292589385532
20
-1.3752075412850993
10
185.28939050069363
20
-1.2181195100995164
10
185.18134665205201
20
-1.0500000000000009
10
185.08977280975483
20
-0.87237152730396139
10
185.01549828069852
20
-0.68684272296658622
10
184.95919570651989
20
-0.4950937645697967
10
184.92137497204934
20
-0.29886116037389898
10
184.90237858771502
20
-0.099922023229859769
10
184.90237858771502
20
0.099922023229859006
10
184.92137497204934
20
0.2988611603738982
10
184.95919570651989
20
0.49509376456979592
10
185.01549828069852
20
0.68684272296658533
10
185.08977280975483
20
0.87237152730396073
10
185.18134665205201
20
1.0499999999999987
10
185.28939050069363
20
1.2181195100995157
10
185.41292589385532
20
1.3752075412850993
10
185.55083407588685
20
1.5198414800206472
10
185.70186612893605
20
1.6507114989598533
10
185.8646542833425
20
1.7666324189454807
10
186.03772430437172
20
1.8665544421753391
10
186.21950884311261
20
1.9495726593337523
10
186.40836163063233
20
2.0149352445904447
10
186.60257238684241
20
2.0620502642516838
10
186.80038230906052
20
2.0904910374034773
10
186.99999999999932
20
2.1000000000000001
10
187.19961769093811
20
2.0904910374034777
10
187.39742761315614
20
2.0620502642516847
10
187.59163836936625
20
2.0149352445904447
10
187.780491156886
20
1.9495726593337528
10
187.96227569562686
20
1.8665544421753399
10
188.13534571665605
20
1.7666324189454816
10
188.29813387106253
20
1.6507114989598539
10
188.44916592411167
20
1.5198414800206483
10
188.58707410614326
20
1.3752075412850999
10
188.71060949930495
20
1.2181195100995166
10
188.81865334794662
20
1.0500000000000009
10
188.91022719024375
20
0.87237152730396172
10
188.98450171930008
20
0.68684272296658622
10
189.04080429347874
20
0.4950937645697987
10
189.07862502794924
20
0.29886116037389931
10
189.09762141228359
20
0.099922023229860046
10
189.09762141228359
20
-0.099922023229858742
10
189.07862502794924
20
-0.29886116037389798
10
189.04080429347874
20
-0.4950937645697957
10
188.98450171930008
20
-0.68684272296658511
10
188.91022719024375
20
-0.87237152730396228
10
188.81865334794662
20
-1.0499999999999985
10
188.71060949930495
20
-1.2181195100995157
10
188.58707410614326
20
-1.3752075412850959
10
188.44916592411167
20
-1.5198414800206461
10
188.29813387106253
20
-1.6507114989598533
10
188.13534571665605
20
-1.7666324189454807
10
187.96227569562686
20
-1.8665544421753402
10
187.780491156886
20
-1.9495726593337523
10
187.59163836936625
20
-2.0149352445904447
10
187.39742761315614
20
-2.0620502642516838
10
187.19961769093811
20
-2.0904910374034773
10
186.99999999999932
20
-2.1000000000000001
10
186.80038230906052
20
-2.0904910374034777
10
186.60257238684241
20
-2.0620502642516843
10
186.40836163063233
20
-2.0149352445904447
10
186.21950884311261
20
-1.9495726593337528
10
186.03772430437172
20
-1.8665544421753397
10
185.8646542833425
20
-1.7666324189454807
10
185.70186612893605
20
-1.6507114989598537
0
LWPOLYLINE
5
116
100
AcDbEntity
8
0
100
AcDbPolyline
90
4
70
1
43
0.0
10
92.399999999999693
20
224.99999835953844
10
107.59999999999964
20
224.99999835953844
10
107.59999999999964
20
221.99999835953844
10
92.399999999999693
20
221.99999835953844
0
ENDSEC
0
SECTION
2
OBJECTS
0
DICTIONARY
5
C
100
AcDbDictionary
3
ACAD_GROUP
350
D
3
ACAD_MLINESTYLE
350
17
0
DICTIONARY
5
D
100
AcDbDictionary
0
DICTIONARY
5
1A
330
C
100
AcDbDictionary
0
DICTIONARY
5
17
100
AcDbDictionary
0
ENDSEC
0
EOF
