  0
SECTION
  2
HEADER
  9
$ACADVER
  1
AC1009
  9
$INSBASE
 10
0.0
 20
0.0
 30
0.0
  9
$EXTMIN
 10
0.0
 20
0.0
 30
0.0
  9
$EXTMAX
 10
0.0
 20
0.0
 30
0.0
  0
ENDSEC
  0
SECTION
  2
TABLES
  0
TABLE
  2
VPORT
 70
0
  0
ENDTAB
  0
TABLE
  2
LTYPE
 70
1
  0
LTYPE
  2
CONTINUOUS
 70
0
  3
Solid line
 72
65
 73
0
 40
0.0
  0
ENDTAB
  0
TABLE
  2
LAYER
 70
1
  0
LAYER
  2
0
 70
64
 62
7
  6
continuous
  0
ENDTAB
  0
TABLE
  2
STYLE
 70
1
  0
STYLE
  2
STANDARD
 70
0
 40
0
 41
1.0
 50
0.0
 71
0
 42
1
 3
ARIAL.TTF
 4

  0
ENDTAB
  0
TABLE
  2
VIEW
 70
0
  0
ENDTAB
  0
ENDSEC
  0
SECTION
  2
BLOCKS
  0
BLOCK
  8
0
  2
SHAPE2DVIEW
 70
0
 10
0.0
 20
0.0
 30
0.0
  3
SHAPE2DVIEW
  0
CIRCLE
  8
0
 62
0
 10
-16.0
 20
4.050000000000001
 30
0.0
 40
2.0
  0
CIRCLE
  8
0
 62
0
 10
-16.0
 20
44.05
 30
0.0
 40
2.0
  0
CIRCLE
  8
0
 62
0
 10
16.0
 20
4.050000000000001
 30
0.0
 40
2.0
  0
CIRCLE
  8
0
 62
0
 10
16.0
 20
44.05
 30
0.0
 40
2.0
  0
ARC
  8
0
 62
0
 10
-16.0
 20
44.05
 30
0.0
 40
4.000000000000002
 50
90.0
 51
-180.0
  0
LINE
  8
0
 62
0
 10
-20.0
 20
44.05
 30
0.0
 11
-20.0
 21
4.049999999999997
 31
0.0
  0
ARC
  8
0
 62
0
 10
-16.0
 20
4.050000000000001
 30
0.0
 40
4.0
 50
-180.0
 51
-90.0
  0
LINE
  8
0
 62
0
 10
-16.0
 20
0.050000000000001155
 30
0.0
 11
16.0
 21
0.050000000000001155
 31
0.0
  0
ARC
  8
0
 62
0
 10
16.0
 20
4.050000000000001
 30
0.0
 40
3.9999999999999996
 50
-90.0
 51
-0.0
  0
LINE
  8
0
 62
0
 10
20.0
 20
4.05
 30
0.0
 11
20.0
 21
52.8
 31
0.0
  0
ARC
  8
0
 62
0
 10
24.0
 20
52.8
 30
0.0
 40
4.0
 50
90.0
 51
-180.0
  0
LINE
  8
0
 62
0
 10
28.299938
 20
56.8
 30
0.0
 11
24.0
 21
56.8
 31
0.0
  0
ARC
  8
0
 62
0
 10
28.299938
 20
60.8
 30
0.0
 40
4.0
 50
-90.0
 51
-0.0
  0
LINE
  8
0
 62
0
 10
32.299938000000004
 20
84.8
 30
0.0
 11
32.299938000000004
 21
60.8
 31
0.0
  0
ARC
  8
0
 62
0
 10
28.299938
 20
84.8
 30
0.0
 40
4.000000000000001
 50
-0.0
 51
90.0
  0
LINE
  8
0
 62
0
 10
4.299937999999997
 20
88.8
 30
0.0
 11
28.299938
 21
88.8
 31
0.0
  0
ARC
  8
0
 62
0
 10
4.299937999999997
 20
84.8
 30
0.0
 40
4.0
 50
90.0
 51
-180.0
  0
LINE
  8
0
 62
0
 10
0.2999379999999974
 20
52.050000000000004
 30
0.0
 11
0.2999379999999974
 21
84.8
 31
0.0
  0
ARC
  8
0
 62
0
 10
-3.7000620000000013
 20
52.050000000000004
 30
0.0
 40
4.0
 50
-90.00000000000001
 51
-0.0
  0
LINE
  8
0
 62
0
 10
-16.0
 20
48.05
 30
0.0
 11
-3.7000620000000026
 21
48.05
 31
0.0
  0
LINE
  8
0
 62
0
 10
13.000000000000002
 20
11.001562118716421
 30
0.0
 11
2.561249694973144
 21
24.049999999999997
 31
0.0
  0
LINE
  8
0
 62
0
 10
2.5612496949731405
 20
24.05
 30
0.0
 11
13.000000000000005
 21
37.09843788128358
 31
0.0
  0
LINE
  8
0
 62
0
 10
13.000000000000004
 20
37.09843788128358
 30
0.0
 11
13.000000000000002
 21
11.001562118716421
 31
0.0
  0
LINE
  8
0
 62
0
 10
-12.999999999999998
 20
11.001562118716425
 30
0.0
 11
-2.5612496949731387
 21
24.05
 31
0.0
  0
LINE
  8
0
 62
0
 10
-2.5612496949731387
 20
24.05
 30
0.0
 11
-12.999999999999996
 21
37.09843788128357
 31
0.0
  0
LINE
  8
0
 62
0
 10
-12.999999999999996
 20
37.09843788128357
 30
0.0
 11
-12.999999999999998
 21
11.001562118716425
 31
0.0
  0
LINE
  8
0
 62
0
 10
-11.038750305026861
 20
7.050000000000001
 30
0.0
 11
11.038750305026861
 21
7.05
 31
0.0
  0
LINE
  8
0
 62
0
 10
11.038750305026861
 20
7.05
 30
0.0
 11
-1.7763568394002505e-15
 21
20.848437881283576
 31
0.0
  0
LINE
  8
0
 62
0
 10
0.0
 20
20.848437881283576
 30
0.0
 11
-11.038750305026863
 21
7.049999999999999
 31
0.0
  0
LINE
  8
0
 62
0
 10
-11.038750305026857
 20
41.05
 30
0.0
 11
1.7763568394002505e-15
 21
27.25156211871642
 31
0.0
  0
LINE
  8
0
 62
0
 10
0.0
 20
27.251562118716425
 30
0.0
 11
11.03875030502686
 21
41.05
 31
0.0
  0
LINE
  8
0
 62
0
 10
11.038750305026857
 20
41.05
 30
0.0
 11
-11.038750305026857
 21
41.05
 31
0.0
  0
CIRCLE
  8
0
 62
0
 10
4.299937999999997
 20
60.8
 30
0.0
 40
2.0
  0
CIRCLE
  8
0
 62
0
 10
4.299937999999997
 20
84.8
 30
0.0
 40
2.0
  0
CIRCLE
  8
0
 62
0
 10
28.299938
 20
84.8
 30
0.0
 40
2.0
  0
CIRCLE
  8
0
 62
0
 10
28.299938
 20
60.8
 30
0.0
 40
2.0
  0
LINE
  8
0
 62
0
 10
22.971510875253816
 20
63.29999999999998
 30
0.0
 11
9.62836512474617
 21
63.3
 31
0.0
  0
LINE
  8
0
 62
0
 10
9.62836512474617
 20
63.3
 30
0.0
 11
16.299937999999987
 21
69.97157287525381
 31
0.0
  0
LINE
  8
0
 62
0
 10
16.299937999999987
 20
69.97157287525381
 30
0.0
 11
22.971510875253816
 21
63.29999999999998
 31
0.0
  0
LINE
  8
0
 62
0
 10
6.799937999999998
 20
66.12842712474621
 30
0.0
 11
13.471510875253799
 21
72.80000000000001
 31
0.0
  0
LINE
  8
0
 62
0
 10
13.471510875253799
 20
72.80000000000001
 30
0.0
 11
6.799937999999998
 21
79.47157287525381
 31
0.0
  0
LINE
  8
0
 62
0
 10
6.799937999999998
 20
79.47157287525381
 30
0.0
 11
6.799937999999998
 21
66.12842712474621
 31
0.0
  0
LINE
  8
0
 62
0
 10
19.128365124746196
 20
72.80000000000001
 30
0.0
 11
25.799938000000022
 21
66.12842712474621
 31
0.0
  0
LINE
  8
0
 62
0
 10
25.799938000000022
 20
66.12842712474621
 30
0.0
 11
25.799938000000008
 21
79.47157287525376
 31
0.0
  0
LINE
  8
0
 62
0
 10
25.799938000000008
 20
79.47157287525376
 30
0.0
 11
19.128365124746196
 21
72.80000000000001
 31
0.0
  0
LINE
  8
0
 62
0
 10
9.628365124746164
 20
82.3
 30
0.0
 11
16.299937999999987
 21
75.62842712474617
 31
0.0
  0
LINE
  8
0
 62
0
 10
16.299937999999987
 20
75.62842712474617
 30
0.0
 11
22.971510875253816
 21
82.3
 31
0.0
  0
LINE
  8
0
 62
0
 10
22.971510875253816
 20
82.3
 30
0.0
 11
9.628365124746164
 21
82.3
 31
0.0
  0
ENDBLK
  0
ENDSEC
  0
SECTION
  2
ENTITIES
  0
INSERT
  2
SHAPE2DVIEW
  8
0
 62
0
 10
0.0
 20
0.0
 30
0.0
  0
ENDSEC
  0
EOF
