  0
SECTION
  2
HEADER
  9
$ACADVER
  1
AC1009
  9
$INSBASE
 10
0.0
 20
0.0
 30
0.0
  9
$EXTMIN
 10
0.0
 20
0.0
 30
0.0
  9
$EXTMAX
 10
0.0
 20
0.0
 30
0.0
  0
ENDSEC
  0
SECTION
  2
TABLES
  0
TABLE
  2
VPORT
 70
0
  0
ENDTAB
  0
TABLE
  2
LTYPE
 70
1
  0
LTYPE
  2
CONTINUOUS
 70
0
  3
Solid line
 72
65
 73
0
 40
0.0
  0
ENDTAB
  0
TABLE
  2
LAYER
 70
1
  0
LAYER
  2
0
 70
64
 62
7
  6
continuous
  0
ENDTAB
  0
TABLE
  2
STYLE
 70
1
  0
STYLE
  2
STANDARD
 70
0
 40
0
 41
1.0
 50
0.0
 71
0
 42
1
 3
ARIAL.TTF
 4

  0
ENDTAB
  0
TABLE
  2
VIEW
 70
0
  0
ENDTAB
  0
ENDSEC
  0
SECTION
  2
BLOCKS
  0
BLOCK
  8
0
  2
SKETCH
 70
0
 10
0.0
 20
0.0
 30
0.0
  3
SKETCH
  0
CIRCLE
  8
0
 62
0
 10
4.050000000000001
 20
-3.552713678800501e-15
 30
16.0
 40
2.0
  0
CIRCLE
  8
0
 62
0
 10
44.05
 20
-3.552713678800501e-15
 30
16.0
 40
2.0
  0
CIRCLE
  8
0
 62
0
 10
4.050000000000001
 20
3.552713678800501e-15
 30
-16.0
 40
2.0
  0
CIRCLE
  8
0
 62
0
 10
44.05
 20
3.552713678800501e-15
 30
-16.0
 40
2.0
  0
POLYLINE
  8
0
 62
0
 70
0
 66
1
 10
0.0
 20
0.0
 30
0.0
  0
VERTEX
  8
0
 10
48.05
 20
-3.552713678800501e-15
 30
16.0
 42
-0.4142135623730953
  0
VERTEX
  8
0
 10
44.05
 20
-4.440892098500626e-15
 30
20.0
  0
VERTEX
  8
0
 10
4.049999999999999
 20
-4.440892098500626e-15
 30
20.0
 42
-0.41421356237309503
  0
VERTEX
  8
0
 10
0.05000000000000093
 20
-3.552713678800501e-15
 30
16.0
  0
VERTEX
  8
0
 10
0.050000000000001155
 20
3.552713678800501e-15
 30
-16.0
 42
-0.41421356237309503
  0
VERTEX
  8
0
 10
4.05
 20
4.440892098500626e-15
 30
-20.0
  0
VERTEX
  8
0
 10
52.8
 20
4.440892098500626e-15
 30
-20.0
 42
0.41421356237309503
  0
VERTEX
  8
0
 10
56.8
 20
5.329070518200751e-15
 30
-24.0
  0
VERTEX
  8
0
 10
56.8
 20
6.283848552612881e-15
 30
-28.299938
 42
-0.41421356237309503
  0
VERTEX
  8
0
 10
60.8
 20
7.172026972313007e-15
 30
-32.299938000000004
  0
VERTEX
  8
0
 10
84.8
 20
7.172026972313007e-15
 30
-32.299938000000004
 42
-0.41421356237309453
  0
VERTEX
  8
0
 10
88.8
 20
6.283848552612881e-15
 30
-28.299938
  0
VERTEX
  8
0
 10
88.8
 20
9.547780344121287e-16
 30
-4.299937999999997
 42
-0.41421356237309515
  0
VERTEX
  8
0
 10
84.8
 20
6.659961471200346e-17
 30
-0.2999379999999974
  0
VERTEX
  8
0
 10
52.050000000000004
 20
6.659961471200375e-17
 30
-0.2999379999999987
 42
0.41421356237309503
  0
VERTEX
  8
0
 10
48.05
 20
-8.215788049881218e-16
 30
3.7000620000000026
  0
VERTEX
  8
0
 10
48.05
 20
-3.552713678800501e-15
 30
16.0
  0
SEQEND
  8
0
  0
POLYLINE
  8
0
 62
0
 70
1
 66
1
 10
0.0
 20
0.0
 30
0.0
  0
VERTEX
  8
0
 10
11.001562118716421
 20
2.8865798640254074e-15
 30
-13.000000000000002
  0
VERTEX
  8
0
 10
24.05
 20
5.687116766346679e-16
 30
-2.5612496949731405
  0
VERTEX
  8
0
 10
37.09843788128358
 20
2.8865798640254078e-15
 30
-13.000000000000004
  0
SEQEND
  8
0
  0
POLYLINE
  8
0
 62
0
 70
1
 66
1
 10
0.0
 20
0.0
 30
0.0
  0
VERTEX
  8
0
 10
11.001562118716425
 20
-2.8865798640254066e-15
 30
12.999999999999998
  0
VERTEX
  8
0
 10
24.05
 20
-5.687116766346675e-16
 30
2.5612496949731387
  0
VERTEX
  8
0
 10
37.09843788128357
 20
-2.8865798640254062e-15
 30
12.999999999999996
  0
SEQEND
  8
0
  0
POLYLINE
  8
0
 62
0
 70
1
 66
1
 10
0.0
 20
0.0
 30
0.0
  0
VERTEX
  8
0
 10
7.050000000000001
 20
-2.451094950345758e-15
 30
11.038750305026861
  0
VERTEX
  8
0
 10
7.05
 20
2.451094950345758e-15
 30
-11.038750305026861
  0
VERTEX
  8
0
 10
20.848437881283576
 20
0.0
 30
0.0
  0
SEQEND
  8
0
  0
POLYLINE
  8
0
 62
0
 70
1
 66
1
 10
0.0
 20
0.0
 30
0.0
  0
VERTEX
  8
0
 10
41.05
 20
-2.4510949503457574e-15
 30
11.038750305026857
  0
VERTEX
  8
0
 10
27.251562118716425
 20
0.0
 30
0.0
  0
VERTEX
  8
0
 10
41.05
 20
2.4510949503457574e-15
 30
-11.038750305026857
  0
SEQEND
  8
0
  0
CIRCLE
  8
0
 62
0
 10
60.8
 20
9.547780344121287e-16
 30
-4.299937999999997
 40
2.0
  0
CIRCLE
  8
0
 62
0
 10
84.8
 20
9.547780344121287e-16
 30
-4.299937999999997
 40
2.0
  0
CIRCLE
  8
0
 62
0
 10
84.8
 20
6.283848552612881e-15
 30
-28.299938
 40
2.0
  0
CIRCLE
  8
0
 62
0
 10
60.8
 20
6.283848552612881e-15
 30
-28.299938
 40
2.0
  0
POLYLINE
  8
0
 62
0
 70
1
 66
1
 10
0.0
 20
0.0
 30
0.0
  0
VERTEX
  8
0
 10
63.29999999999998
 20
5.100700056826794e-15
 30
-22.971510875253816
  0
VERTEX
  8
0
 10
63.3
 20
2.137926530198213e-15
 30
-9.62836512474617
  0
VERTEX
  8
0
 10
69.97157287525381
 20
3.619313293512502e-15
 30
-16.299937999999987
  0
SEQEND
  8
0
  0
POLYLINE
  8
0
 62
0
 70
1
 66
1
 10
0.0
 20
0.0
 30
0.0
  0
VERTEX
  8
0
 10
66.12842712474621
 20
1.5098895467247072e-15
 30
-6.799937999999998
  0
VERTEX
  8
0
 10
72.80000000000001
 20
2.9912763100389924e-15
 30
-13.471510875253799
  0
VERTEX
  8
0
 10
79.47157287525381
 20
1.5098895467247072e-15
 30
-6.799937999999998
  0
SEQEND
  8
0
  0
POLYLINE
  8
0
 62
0
 70
1
 66
1
 10
0.0
 20
0.0
 30
0.0
  0
VERTEX
  8
0
 10
72.80000000000001
 20
4.247350276986016e-15
 30
-19.128365124746196
  0
VERTEX
  8
0
 10
66.12842712474621
 20
5.728737040300307e-15
 30
-25.799938000000022
  0
VERTEX
  8
0
 10
79.47157287525376
 20
5.728737040300304e-15
 30
-25.799938000000008
  0
SEQEND
  8
0
  0
POLYLINE
  8
0
 62
0
 70
1
 66
1
 10
0.0
 20
0.0
 30
0.0
  0
VERTEX
  8
0
 10
82.3
 20
2.1379265301982118e-15
 30
-9.628365124746164
  0
VERTEX
  8
0
 10
75.62842712474617
 20
3.619313293512502e-15
 30
-16.299937999999987
  0
VERTEX
  8
0
 10
82.3
 20
5.100700056826794e-15
 30
-22.971510875253816
  0
SEQEND
  8
0
  0
ENDBLK
  0
ENDSEC
  0
SECTION
  2
ENTITIES
  0
INSERT
  2
SKETCH
  8
0
 62
0
 10
0.0
 20
0.0
 30
0.0
  0
ENDSEC
  0
EOF
